<?xml version="1.0" encoding="UTF-8"?>
<svg width="227px" height="176px" viewBox="0 0 227 176" version="1.1" xmlns="http://www.w3.org/2000/svg" xmlns:xlink="http://www.w3.org/1999/xlink">
    <!-- Generator: Sketch 48.2 (47327) - http://www.bohemiancoding.com/sketch -->
    <title>big-dog_1</title>
    <desc>Created with Sketch.</desc>
    <defs>
        <path d="M179.80198,61.656051 C186.544554,80.3397028 195.160066,89.6815287 205.648515,89.6815287 C214.221189,89.6815287 220.214589,88.5605096 223.628713,86.3184713 L223.628713,86.3184713 C224.809904,85.8471482 226.149532,86.4226101 226.620855,87.6038015 C226.893016,88.2858675 226.823533,89.0568417 226.433808,89.6792565 C221.753357,97.1542319 214.824926,100.89172 205.648515,100.89172 C194.410891,100.89172 185.420792,95.2866242 178.678218,84.0764331 L179.80198,61.656051 Z" id="path-1"></path>
    </defs>
    <g id="Artboard-Copy-4" stroke="none" stroke-width="1" fill="none" fill-rule="evenodd" transform="translate(-466.000000, -785.000000)">
        <g id="big-dog_1" transform="translate(466.000000, 785.000000)">
            <path d="M46.3830166,3.67106279 L46.3830166,3.67106279 C47.3003653,2.75595345 48.5432139,2.24203822 49.8389584,2.24203822 L50.8885088,2.24203822 C52.808048,2.24203822 54.6002945,3.20241264 55.66341,4.80066674 L62.076071,14.4412574 C64.615609,18.259118 64.5082071,23.2547719 61.8069307,26.95996 L61.8069307,26.95996 C60.3766578,28.9217844 57.6268196,29.352692 55.6649953,27.9224191 C55.0392503,27.4662183 54.5451179,26.8528169 54.2326031,26.1442899 L45.7670742,6.95141871 C45.2749672,5.83572388 45.5197152,4.53225674 46.3830166,3.67106279 Z" id="Path-41" fill="#946032"></path>
            <g id="Path-37">
                <use fill="#B9783F" xlink:href="#path-1"></use>
                <use fill-opacity="0.2" fill="#000000" xlink:href="#path-1"></use>
            </g>
            <path d="M25.979008,167.022827 L27.7537213,106.829874 C27.9764649,99.2750782 26.1526327,91.8005869 22.4752475,85.1974522 L20.1290286,80.9845676 C17.9828903,77.1309489 16.8564356,72.7930937 16.8564356,68.3821656 L10.280755,53.8052135 C7.9486417,48.6353907 6.74257426,43.0287348 6.74257426,37.3572429 L6.74257426,12 C6.74257426,5.372583 12.1151573,2.99379359e-15 18.7425743,1.77635684e-15 L41.3118812,1.0658141e-14 C50.1484372,9.03489203e-15 57.3118812,7.163444 57.3118812,16 L57.3118812,25.7834395 L74.5966716,33.0783839 C82.472195,36.4022022 90.9337746,38.1146497 99.4819696,38.1146497 L156.806496,38.1146497 C169.937368,38.1146497 181.007289,47.9053496 182.611687,60.9378361 L186.836414,95.2552088 C187.383052,99.6955346 188.985732,103.940232 191.51022,107.633775 L202.103794,123.133088 C203.692854,125.45802 204.67946,128.141293 204.974976,130.941845 L208.5481,164.803654 C208.78257,167.025688 207.171332,169.017077 204.949299,169.251548 C204.808273,169.266429 204.666562,169.273885 204.524752,169.273885 L204.524752,169.273885 C201.849261,169.273885 199.482936,167.53842 198.678967,164.986581 L190.178266,138.004922 C188.595341,132.980639 184.772685,128.974009 179.828297,127.156839 L170.593875,123.762989 C169.038724,123.191437 167.314691,123.988802 166.743139,125.543953 C166.602486,125.92666 166.541322,126.334022 166.563384,126.74116 L168.321143,159.180325 C168.448385,161.528549 166.647923,163.535311 164.299698,163.662552 C164.222972,163.66671 164.146146,163.66879 164.069307,163.66879 L164.069307,163.66879 C161.4426,163.66879 159.168012,161.845148 158.596871,159.281286 L152.557265,132.169407 C151.322688,126.627371 147.429496,122.053317 142.155941,119.949045 L141.099064,119.527326 C136.235438,117.586625 131.816214,114.679145 128.108911,110.980892 L124.16439,107.045999 C123.104485,105.988682 121.626572,105.461938 120.136863,105.610545 L82.8516456,109.329965 C79.7143916,109.642925 77.1735066,112.014575 76.6453904,115.122854 L67.0549266,171.568461 C66.6201066,174.127636 64.402783,176 61.8069307,176 L61.8069307,176 C59.3243834,176 57.3118812,173.987498 57.3118812,171.50495 L57.3118812,114.916803 C57.3118812,112.123938 55.0478162,109.859873 52.2549505,109.859873 L52.2549505,109.859873 C49.3142411,109.859873 46.7820182,111.934803 46.2039409,114.818134 L35.7202594,167.10858 C35.2064128,169.671541 32.955548,171.515924 30.3415842,171.515924 L30.3415842,171.515924 C27.9311528,171.515924 25.9771122,169.561883 25.9771122,167.151452 C25.9771122,167.10857 25.9777442,167.06569 25.979008,167.022827 Z" id="Path-35" fill="#B9783F"></path>
            <path d="M13.4851485,35.9726429 L13.4851485,24.0751916 C13.4851485,21.5690731 14.426146,19.1543072 16.1218401,17.3089748 L23.3351614,9.45910665 C24.9554078,7.69587986 27.1545811,6.57260249 29.5328708,6.29348674 L33.0196204,5.88428227 C34.4170318,5.72028226 35.7462458,6.53011449 36.2413366,7.84713376 L36.8864457,9.56322507 C37.0053894,9.87963413 37.3080125,10.089172 37.6460396,10.089172 L37.6460396,10.089172 C37.9971282,10.089172 38.3250454,9.91391399 38.5201238,9.62201062 L39.3316832,8.40764331 C40.0338603,7.35694879 41.2141852,6.72611465 42.4779145,6.72611465 L43.8267327,6.72611465 C45.9268138,6.72611465 47.8816866,7.79782561 49.0111304,9.56833327 L52.7103512,15.3672039 C54.2476323,17.7770342 55.0643564,20.5759368 55.0643564,23.4343482 L55.0643564,34.2460682 C55.0643564,35.3233516 54.8902828,36.3935575 54.5488659,37.4153079 L53.1533278,41.5917021 C52.9296258,42.2611699 52.7774338,42.9524414 52.6992969,43.6539572 L52.2549505,47.6433121 C51.9026375,50.8063885 50.0345301,53.6007204 47.2462974,55.1353004 L39.7414838,59.2657794 C37.0050625,60.7718436 33.722094,60.9127939 30.8666582,59.6468093 L24.3269725,56.7473776 C21.8346126,55.6423662 20.2277228,53.1721959 20.2277228,50.4458599 L20.2277228,50.3458285 C20.2277228,47.5683445 18.9922932,44.934772 16.8564356,43.1592357 L16.8564356,43.1592357 C14.7205781,41.3836993 13.4851485,38.7501268 13.4851485,35.9726429 Z" id="Path-39" fill="#502A16"></path>
            <path d="M3.09158263,31.980869 L5.05693069,33.0700637 C7.17209405,34.2422859 9.83704658,33.477881 11.0092688,31.3627177 C11.2037296,31.0118317 11.3490473,30.6358863 11.4411436,30.2454324 L14.4486634,17.4946761 C14.555136,17.043272 14.6089109,16.5810451 14.6089109,16.1172542 L14.6089109,6.73434445 C14.6089109,4.87243399 13.0995342,3.36305732 11.2376238,3.36305732 L10.9858909,3.36305732 C9.03044305,3.36305732 7.19767037,4.31596297 6.07445516,5.91663908 L1.08856423,13.0219528 C0.380104378,14.0315677 4.83757884e-15,15.2349865 4.4408921e-15,16.4683711 L-2.66453526e-15,26.7329067 C-1.42875056e-15,28.9141374 1.18374661,30.9235475 3.09158263,31.980869 Z" id="Path-40" fill="#502A16"></path>
        </g>
    </g>
</svg>