<?xml version="1.0" encoding="UTF-8"?>
<svg width="64px" height="94px" viewBox="0 0 64 94" version="1.1" xmlns="http://www.w3.org/2000/svg" xmlns:xlink="http://www.w3.org/1999/xlink">
    <!-- Generator: Sketch 48.2 (47327) - http://www.bohemiancoding.com/sketch -->
    <title>Cat_1</title>
    <desc>Created with Sketch.</desc>
    <defs></defs>
    <g id="Symbols" stroke="none" stroke-width="1" fill="none" fill-rule="evenodd">
        <g id="Cat_1">
            <path d="" id="Path-19" stroke="#979797"></path>
            <path d="M26,89 C8.66666667,89 0,84.6666667 0,76 C0,67.8245034 4.1527031,63.5050882 12.4581093,63.0417545 L12.4581078,63.0417279 C13.2634893,62.9967981 13.9528027,63.6132659 13.9977326,64.4186474 C13.9992439,64.4457386 14,64.4728667 14,64.5 L14,64.5 C14,65.3088606 13.3880858,65.9865999 12.5834287,66.0689553 C8.19447648,66.5181654 6,69.1618445 6,74 C6,79.3333333 12.6666667,81.6666667 26,81 L26,89 Z" id="Path-21" fill="#E4E4E4"></path>
            <path d="M28,90 L23,90 C21.8954305,90 21,89.1045695 21,88 L21,87.5 C21,86.5557281 21.4445825,85.6665631 22.2,85.1 L23,84.5 C24.1854163,83.6109378 24.6424757,82.0466019 24.1221914,80.6591771 L21.1067406,72.6179751 C19.7136066,68.9029509 19,64.9676475 19,61 L19,59.8284271 C19,58.0174157 19.7194215,56.2805785 21,55 L21,40.4886114 C21,36.8404941 21.3992592,33.2033334 22.190647,29.6420885 L23,26 L23,19.5410197 C23,17.2123432 23.5421764,14.9156472 24.5835921,12.8328157 L26,10 L24.3429972,3.37198868 C24.1302027,2.52081092 24.3796029,1.62039707 25,1 L25,1 C25.5663545,0.433645516 26.471125,0.392604203 27.086429,0.90535746 L32,5 L44,5 L48.6150694,1.15410884 C49.3023721,0.581356545 50.3238486,0.67421804 50.8966009,1.36152079 C50.9335067,1.40580781 50.9680222,1.45203331 51,1.5 L51,1.5 C51.6450675,2.46760132 51.9206347,3.63492248 51.7763932,4.78885438 L51,11 L51.4609579,12.6133527 C52.4820032,16.1870113 53,19.8855367 53,23.6021978 L53,30.5181845 C53,34.7683094 54.2143241,38.9299592 56.5,42.5131488 L56.7732583,42.9415281 C58.8804828,46.2449645 60,50.0816985 60,54 L60,54 C62.4514643,55.2257321 64,57.7313156 64,60.472136 L64,67.4098301 C64,71.0860867 63.1440719,74.7118561 61.5,78 L60.118034,80.763932 C59.4706033,82.0587934 59.8418408,83.6313806 61,84.5 L61.8,85.1 C62.5554175,85.6665631 63,86.5557281 63,87.5 L63,88 C63,89.1045695 62.1045695,90 61,90 L45,90 L45,90 C45,91.6568542 43.6568542,93 42,93 L31,93 C29.3431458,93 28,91.6568542 28,90 Z" id="Path-20" fill="#F9F8F9"></path>
            <path d="M29,14.881966 L29,14 C29,12.8954305 29.8954305,12 31,12 L31.881966,12 C32.5671711,12 33.193567,12.3871339 33.5,13 L33.5,13 C33.806433,13.6128661 34.4328289,14 35.118034,14 L36.881966,14 C37.5671711,14 38.193567,13.6128661 38.5,13 L38.5,13 C38.806433,12.3871339 39.4328289,12 40.118034,12 L42,12 C43.1045695,12 44,12.8954305 44,14 L44,14 C44,15.1754137 43.2000338,16.1999916 42.059715,16.4850713 L41.7489493,16.5627627 C41.0682483,16.7329379 40.6543854,17.4227094 40.8245607,18.1034103 C40.8598792,18.2446846 40.9192234,18.3788351 41,18.5 L41,18.5 C41.6520504,19.4780756 42,20.627275 42,21.8027756 L42,22 C42,23.1943806 41.2357223,24.2547592 40.1026334,24.6324555 L39,25 C37.0526681,25.6491106 34.9473319,25.6491106 33,25 L32.3717082,24.7905694 C30.9553471,24.318449 30,22.9929757 30,21.5 L30,20.118034 C30,19.3827827 30.1711856,18.6576288 30.5,18 L30.5,18 C30.7761424,17.4477153 30.5522847,16.7761424 30,16.5 L30,16.5 C29.3871339,16.193567 29,15.5671711 29,14.881966 Z" id="Path-22" fill="#4A4A4A"></path>
            <path d="M26.2108585,7.83102358 L25.2718185,4.08448821 C25.0964247,3.38471051 25.1773696,2.64526077 25.5,2 L25.5,2 C25.6618496,1.67630074 26.0554648,1.54509568 26.379164,1.70694532 C26.4794474,1.75708697 26.5651879,1.83212095 26.6281843,1.92486997 L29.498127,6.15026006 C30.105355,7.04427627 29.8728672,8.26127517 28.978851,8.86850319 C28.9070644,8.91726168 28.8321138,8.96119093 28.7544956,9 L28.7544956,9 C27.8678926,9.44330149 26.789792,9.08393463 26.3464906,8.19733165 C26.2880882,8.08052688 26.2426082,7.95769697 26.2108585,7.83102358 Z" id="Path-23" fill="#4A4A4A"></path>
            <path d="M47.3566464,8.52485835 L46.9338448,5.56524758 C46.7867946,4.53589573 46.8814237,3.48644317 47.2102381,2.5 L47.2102381,2.5 C47.3337162,2.12956541 47.7341117,1.92936769 48.1045463,2.05284589 C48.2695539,2.10784844 48.4084965,2.22174564 48.4948026,2.37275579 L50.4702748,5.82924755 C51.1790104,7.06932512 50.853302,8.64310065 49.7105763,9.5 L49.7105763,9.5 C49.056381,9.9905635 48.1283707,9.85791372 47.6378072,9.20371842 C47.4885326,9.004652 47.3918345,8.77117548 47.3566464,8.52485835 Z" id="Path-23-Copy" fill="#4A4A4A" transform="translate(48.855119, 5.906250) scale(-1, 1) translate(-48.855119, -5.906250) "></path>
        </g>
    </g>
</svg>