<?xml version="1.0" encoding="UTF-8"?>
<svg width="217px" height="234px" viewBox="0 0 217 234" version="1.1" xmlns="http://www.w3.org/2000/svg" xmlns:xlink="http://www.w3.org/1999/xlink">
    <!-- Generator: Sketch 48.2 (47327) - http://www.bohemiancoding.com/sketch -->
    <title>chair_4</title>
    <desc>Created with Sketch.</desc>
    <defs></defs>
    <g id="empty-room" stroke="none" stroke-width="1" fill="none" fill-rule="evenodd" transform="translate(-72.000000, -679.000000)">
        <g id="Group" transform="translate(72.000000, 562.000000)">
            <g id="chair_4" transform="translate(0.000000, 117.000000)">
                <g id="chair_3" transform="translate(108.500000, 117.000000) scale(-1, 1) translate(-108.500000, -117.000000) ">
                    <g>
                        <path d="M129.208328,217.047767 C158.402776,219.493984 173,222.027845 173,224.649351 C173,229.813572 139.869071,234 99,234 C58.1309285,234 25,229.813572 25,224.649351 C25,222.027845 39.597224,219.493984 68.7916721,217.047767 L68.7916721,217.047768 C81.7441405,215.962474 91.7042254,205.132926 91.7042254,192.135069 L91.7042254,154 L106.295775,154 L106.295774,192.135068 C106.295774,205.132925 116.255859,215.962474 129.208328,217.047767 Z" id="Combined-Shape" fill="#C1BFBC"></path>
                        <path d="M23.4011062,100.024634 L37.3021448,93.4236 C37.3021448,93.4236 62.942604,82.9969448 95.1014452,40.421669 C127.260286,-2.15329655 120.741594,0.0188068966 162.461163,0.0188068966 C204.180733,0.0188068966 216.783807,1.75642759 216.783807,20.4376345 C216.783807,39.118531 214.254314,57.9341172 209.923316,76.4080138 C205.592009,94.8819103 190.436158,143.873876 177.442545,161.770531 C164.449243,179.666876 130.915448,180.242255 62.0938515,180.242255 C-9.51521717,180.242255 -0.283248641,144.818876 1.16031359,134.4276 C1.31832933,133.290497 1.4580289,132.109014 1.58220629,130.906428 C2.96150672,117.510083 11.2326526,105.802945 23.4011062,100.024634" id="Fill-6" fill="#FF0000"></path>
                        <path d="M23.4011062,100.024634 L37.3021448,93.4236 C37.3021448,93.4236 62.942604,82.9969448 95.1014452,40.421669 C127.260286,-2.15329655 120.741594,0.0188068966 162.461163,0.0188068966 C204.180733,0.0188068966 216.783807,1.75642759 216.783807,20.4376345 C216.783807,39.118531 214.254314,57.9341172 209.923316,76.4080138 C205.592009,94.8819103 202.993286,102.964221 185.957389,115.665083 C168.921492,128.365634 163.435335,141.066497 150.441723,158.963152 C137.44811,176.859497 130.915448,180.242255 62.0938515,180.242255 C-9.51521717,180.242255 -0.283248641,144.818876 1.16031359,134.4276 C1.31832933,133.290497 1.4580289,132.109014 1.58220629,130.906428 C2.96150672,117.510083 11.2326526,105.802945 23.4011062,100.024634 Z M20.17327,148.413724 C23.6337835,165.424655 108.391686,160.232897 108.391686,160.232897 C108.391686,160.232897 139.375188,159.464172 152.448895,137.553207 C165.522291,115.642552 171.094131,114.315828 186.411413,98.1198621 C198.420609,85.4214828 202.240927,46.3000345 201.334121,25.4973103 C201.005672,17.9671034 194.988035,11.9318276 187.456055,11.5988276 C176.205583,11.1016552 159.885879,10.4102069 147.536437,9.891 C137.026683,9.44937931 127.200216,14.5266207 121.000038,23.0213793 C107.08534,42.0855517 96.5336763,61.3871379 65.4098536,88.245931 C40.9015818,109.395931 32.4780082,106.416931 25.172031,118.717759 C18.3056419,130.278414 20.17327,148.413724 20.17327,148.413724 Z" id="Combined-Shape" fill="#FFFFFF" opacity="0.206918025"></path>
                        <path d="M37.3022379,98.149531 C37.3022379,98.149531 47.7151335,145.458186 66.917926,158.697497 C66.917926,158.697497 103.337604,155.387669 115.918947,148.437186 C115.918947,148.437186 107.31066,109.638497 86.7835155,90.1476 C86.7835155,90.1476 67.2817658,89.2345655 37.3022379,98.149531" id="Fill-14" fill="#F8E71C"></path>
                    </g>
                </g>
            </g>
        </g>
    </g>
</svg>