<?xml version="1.0" encoding="UTF-8"?>
<svg width="27px" height="25px" viewBox="0 0 27 25" version="1.1" xmlns="http://www.w3.org/2000/svg" xmlns:xlink="http://www.w3.org/1999/xlink">
    <!-- Generator: Sketch 48.2 (47327) - http://www.bohemiancoding.com/sketch -->
    <title>“</title>
    <desc>Created with Sketch.</desc>
    <defs></defs>
    <g id="Artboard-Copy-5" stroke="none" stroke-width="1" fill="none" fill-rule="evenodd" transform="translate(-249.000000, -290.000000)">
        <g id="info" transform="translate(50.000000, 43.000000)" stroke="#FFFFFF">
            <path d="M210.003673,270.95193 L210.003673,260.109515 L205.356924,260.109515 C205.356924,258.372843 205.685479,256.90608 206.342598,255.709184 C206.999718,254.512289 208.220064,253.608763 210.003673,252.998581 L210.003673,248.351832 C208.548623,248.53958 207.199202,248.973742 205.955369,249.65433 C204.711536,250.334917 203.643733,251.191507 202.751929,252.224123 C201.860124,253.256739 201.167812,254.453617 200.674973,255.814792 C200.182133,257.175968 199.959185,258.630996 200.006122,260.17992 L200.006122,270.95193 L210.003673,270.95193 Z M225,270.95193 L225,260.109515 L220.353251,260.109515 C220.353251,258.372843 220.681806,256.90608 221.338925,255.709184 C221.996044,254.512289 223.21639,253.608763 225,252.998581 L225,248.351832 C223.54495,248.53958 222.195529,248.973742 220.951696,249.65433 C219.707863,250.334917 218.64006,251.191507 217.748255,252.224123 C216.85645,253.256739 216.164139,254.453617 215.671299,255.814792 C215.17846,257.175968 214.955512,258.630996 215.002449,260.17992 L215.002449,270.95193 L225,270.95193 Z" id="“" transform="translate(212.500000, 259.651881) rotate(180.000000) translate(-212.500000, -259.651881) "></path>
        </g>
    </g>
</svg>