<?xml version="1.0" encoding="UTF-8"?>
<svg width="22px" height="21px" viewBox="0 0 22 21" version="1.1" xmlns="http://www.w3.org/2000/svg" xmlns:xlink="http://www.w3.org/1999/xlink">
    <!-- Generator: Sketch 48.2 (47327) - http://www.bohemiancoding.com/sketch -->
    <title>“-blk</title>
    <desc>Created with Sketch.</desc>
    <defs></defs>
    <g id="step-2" stroke="none" stroke-width="1" fill="none" fill-rule="evenodd" transform="translate(-692.000000, -219.000000)">
        <g id="about" transform="translate(693.000000, 210.000000)" stroke="#4A4A4A">
            <path d="M7.93334793,29 L7.93334793,19.8847352 L4.24827387,19.8847352 C4.24827387,18.4247071 4.50883206,17.1915938 5.02995625,16.1853583 C5.55108044,15.1791227 6.51886799,14.4195249 7.93334793,13.9065421 L7.93334793,10 C6.77943008,10.1578409 5.70928039,10.5228424 4.72286674,11.0950156 C3.7364531,11.6671887 2.88963899,12.3873269 2.18239902,13.2554517 C1.47515904,14.1235765 0.926125721,15.129797 0.535282578,16.2741433 C0.144439436,17.4184896 -0.0323679055,18.641738 0.00485525099,19.9439252 L0.00485525099,29 L7.93334793,29 Z M19.826087,29 L19.826087,19.8847352 L16.1410129,19.8847352 C16.1410129,18.4247071 16.4015711,17.1915938 16.9226953,16.1853583 C17.4438195,15.1791227 18.411607,14.4195249 19.826087,13.9065421 L19.826087,10 C18.6721691,10.1578409 17.6020194,10.5228424 16.6156058,11.0950156 C15.6291921,11.6671887 14.782378,12.3873269 14.075138,13.2554517 C13.3678981,14.1235765 12.8188647,15.129797 12.4280216,16.2741433 C12.0371785,17.4184896 11.8603711,18.641738 11.8975943,19.9439252 L11.8975943,29 L19.826087,29 Z" id="“-blk" transform="translate(9.913043, 19.500000) rotate(180.000000) translate(-9.913043, -19.500000) "></path>
        </g>
    </g>
</svg>