<?xml version="1.0" encoding="UTF-8"?>
<svg width="800px" height="1000px" viewBox="0 0 800 1000" version="1.1" xmlns="http://www.w3.org/2000/svg" xmlns:xlink="http://www.w3.org/1999/xlink">
    <!-- Generator: Sketch 48.2 (47327) - http://www.bohemiancoding.com/sketch -->
    <title>empty-room</title>
    <desc>Created with Sketch.</desc>
    <defs></defs>
    <g id="Page-1" stroke="none" stroke-width="1" fill="none" fill-rule="evenodd">
        <g id="empty-room">
            <g id="bg">
                <rect id="wall" fill="#3E3E3E" x="0" y="0" width="800" height="1204" rx="-10"></rect>
                <rect id="floor" fill="#353535" x="0" y="831" width="800" height="290" rx="-10"></rect>
            </g>
            <g id="pattern" opacity="0.0547441123" transform="translate(-15.000000, -69.000000)" stroke="#FFFFFF" stroke-width="16">
                <circle id="Oval-2-Copy-118" cx="840" cy="840" r="29"></circle>
                <circle id="Oval-2-Copy-117" cx="750" cy="840" r="29"></circle>
                <circle id="Oval-2-Copy-116" cx="659" cy="840" r="29"></circle>
                <circle id="Oval-2-Copy-115" cx="569" cy="840" r="29"></circle>
                <circle id="Oval-2-Copy-114" cx="479" cy="840" r="29"></circle>
                <circle id="Oval-2-Copy-113" cx="389" cy="840" r="29"></circle>
                <circle id="Oval-2-Copy-112" cx="299" cy="840" r="29"></circle>
                <circle id="Oval-2-Copy-111" cx="209" cy="840" r="29"></circle>
                <circle id="Oval-2-Copy-110" cx="119" cy="840" r="29"></circle>
                <circle id="Oval-2-Copy-109" cx="29" cy="840" r="29"></circle>
                <circle id="Oval-2-Copy-106" cx="840" cy="750" r="29"></circle>
                <circle id="Oval-2-Copy-105" cx="750" cy="750" r="29"></circle>
                <circle id="Oval-2-Copy-104" cx="659" cy="750" r="29"></circle>
                <circle id="Oval-2-Copy-103" cx="569" cy="750" r="29"></circle>
                <circle id="Oval-2-Copy-102" cx="479" cy="750" r="29"></circle>
                <circle id="Oval-2-Copy-101" cx="389" cy="750" r="29"></circle>
                <circle id="Oval-2-Copy-100" cx="299" cy="750" r="29"></circle>
                <circle id="Oval-2-Copy-99" cx="209" cy="750" r="29"></circle>
                <circle id="Oval-2-Copy-98" cx="119" cy="750" r="29"></circle>
                <circle id="Oval-2-Copy-97" cx="29" cy="750" r="29"></circle>
                <circle id="Oval-2-Copy-94" cx="840" cy="660" r="29"></circle>
                <circle id="Oval-2-Copy-93" cx="750" cy="660" r="29"></circle>
                <circle id="Oval-2-Copy-92" cx="659" cy="660" r="29"></circle>
                <circle id="Oval-2-Copy-91" cx="569" cy="660" r="29"></circle>
                <circle id="Oval-2-Copy-90" cx="479" cy="660" r="29"></circle>
                <circle id="Oval-2-Copy-89" cx="389" cy="660" r="29"></circle>
                <circle id="Oval-2-Copy-88" cx="299" cy="660" r="29"></circle>
                <circle id="Oval-2-Copy-87" cx="209" cy="660" r="29"></circle>
                <circle id="Oval-2-Copy-86" cx="119" cy="660" r="29"></circle>
                <circle id="Oval-2-Copy-85" cx="29" cy="660" r="29"></circle>
                <circle id="Oval-2-Copy-82" cx="840" cy="569" r="29"></circle>
                <circle id="Oval-2-Copy-81" cx="750" cy="569" r="29"></circle>
                <circle id="Oval-2-Copy-80" cx="659" cy="569" r="29"></circle>
                <circle id="Oval-2-Copy-79" cx="569" cy="569" r="29"></circle>
                <circle id="Oval-2-Copy-78" cx="479" cy="569" r="29"></circle>
                <circle id="Oval-2-Copy-77" cx="389" cy="569" r="29"></circle>
                <circle id="Oval-2-Copy-76" cx="299" cy="569" r="29"></circle>
                <circle id="Oval-2-Copy-75" cx="209" cy="569" r="29"></circle>
                <circle id="Oval-2-Copy-74" cx="119" cy="569" r="29"></circle>
                <circle id="Oval-2-Copy-73" cx="29" cy="569" r="29"></circle>
                <circle id="Oval-2-Copy-70" cx="840" cy="479" r="29"></circle>
                <circle id="Oval-2-Copy-69" cx="750" cy="479" r="29"></circle>
                <circle id="Oval-2-Copy-68" cx="659" cy="479" r="29"></circle>
                <circle id="Oval-2-Copy-67" cx="569" cy="479" r="29"></circle>
                <circle id="Oval-2-Copy-66" cx="479" cy="479" r="29"></circle>
                <circle id="Oval-2-Copy-65" cx="389" cy="479" r="29"></circle>
                <circle id="Oval-2-Copy-64" cx="299" cy="479" r="29"></circle>
                <circle id="Oval-2-Copy-63" cx="209" cy="479" r="29"></circle>
                <circle id="Oval-2-Copy-62" cx="119" cy="479" r="29"></circle>
                <circle id="Oval-2-Copy-61" cx="29" cy="479" r="29"></circle>
                <circle id="Oval-2-Copy-58" cx="840" cy="389" r="29"></circle>
                <circle id="Oval-2-Copy-57" cx="750" cy="389" r="29"></circle>
                <circle id="Oval-2-Copy-56" cx="659" cy="389" r="29"></circle>
                <circle id="Oval-2-Copy-55" cx="569" cy="389" r="29"></circle>
                <circle id="Oval-2-Copy-54" cx="479" cy="389" r="29"></circle>
                <circle id="Oval-2-Copy-53" cx="389" cy="389" r="29"></circle>
                <circle id="Oval-2-Copy-52" cx="299" cy="389" r="29"></circle>
                <circle id="Oval-2-Copy-51" cx="209" cy="389" r="29"></circle>
                <circle id="Oval-2-Copy-50" cx="119" cy="389" r="29"></circle>
                <circle id="Oval-2-Copy-49" cx="29" cy="389" r="29"></circle>
                <circle id="Oval-2-Copy-46" cx="840" cy="299" r="29"></circle>
                <circle id="Oval-2-Copy-45" cx="750" cy="299" r="29"></circle>
                <circle id="Oval-2-Copy-44" cx="659" cy="299" r="29"></circle>
                <circle id="Oval-2-Copy-43" cx="569" cy="299" r="29"></circle>
                <circle id="Oval-2-Copy-42" cx="479" cy="299" r="29"></circle>
                <circle id="Oval-2-Copy-41" cx="389" cy="299" r="29"></circle>
                <circle id="Oval-2-Copy-40" cx="299" cy="299" r="29"></circle>
                <circle id="Oval-2-Copy-39" cx="209" cy="299" r="29"></circle>
                <circle id="Oval-2-Copy-38" cx="119" cy="299" r="29"></circle>
                <circle id="Oval-2-Copy-37" cx="29" cy="299" r="29"></circle>
                <circle id="Oval-2-Copy-34" cx="840" cy="209" r="29"></circle>
                <circle id="Oval-2-Copy-33" cx="750" cy="209" r="29"></circle>
                <circle id="Oval-2-Copy-32" cx="659" cy="209" r="29"></circle>
                <circle id="Oval-2-Copy-31" cx="569" cy="209" r="29"></circle>
                <circle id="Oval-2-Copy-30" cx="479" cy="209" r="29"></circle>
                <circle id="Oval-2-Copy-29" cx="389" cy="209" r="29"></circle>
                <circle id="Oval-2-Copy-28" cx="299" cy="209" r="29"></circle>
                <circle id="Oval-2-Copy-27" cx="209" cy="209" r="29"></circle>
                <circle id="Oval-2-Copy-26" cx="119" cy="209" r="29"></circle>
                <circle id="Oval-2-Copy-25" cx="29" cy="209" r="29"></circle>
                <circle id="Oval-2-Copy-22" cx="840" cy="119" r="29"></circle>
                <circle id="Oval-2-Copy-21" cx="750" cy="119" r="29"></circle>
                <circle id="Oval-2-Copy-20" cx="659" cy="119" r="29"></circle>
                <circle id="Oval-2-Copy-19" cx="569" cy="119" r="29"></circle>
                <circle id="Oval-2-Copy-18" cx="479" cy="119" r="29"></circle>
                <circle id="Oval-2-Copy-17" cx="389" cy="119" r="29"></circle>
                <circle id="Oval-2-Copy-16" cx="299" cy="119" r="29"></circle>
                <circle id="Oval-2-Copy-15" cx="209" cy="119" r="29"></circle>
                <circle id="Oval-2-Copy-14" cx="119" cy="119" r="29"></circle>
                <circle id="Oval-2-Copy-13" cx="29" cy="119" r="29"></circle>
            </g>
        </g>
    </g>
</svg>