<?xml version="1.0" encoding="UTF-8"?>
<svg width="185px" height="101px" viewBox="0 0 185 101" version="1.1" xmlns="http://www.w3.org/2000/svg" xmlns:xlink="http://www.w3.org/1999/xlink">
    <!-- Generator: Sketch 48.2 (47327) - http://www.bohemiancoding.com/sketch -->
    <title>gym</title>
    <desc>Created with Sketch.</desc>
    <defs>
        <path d="M0,28 L0,21.7060521 C-3.81720052e-16,18.5890714 0.502508491,15.4924745 1.48818436,12.5354469 L4,5 L7.67007424,7.6214816 C9.80413981,9.14581415 12.4516134,9.77079789 15.0420819,9.36177654 L26.5428296,7.54586901 C28.5336948,7.23152187 30,5.51552931 30,3.5 L30,3.5 C30,2.28671238 30.9835639,1.30314844 32.1968516,1.30314844 C32.5275983,1.30314844 32.8540762,1.3778299 33.1519307,1.52162173 L59,14 L77,22 L77,28 L0,28 Z" id="path-1"></path>
        <rect id="path-2" x="0" y="22" width="77" height="6"></rect>
        <path d="M33.6487387,7.74643026 C32.8351453,7.14007482 32.5977384,6.00376936 33.1309221,5.11512988 L35,2 L58,13 L55.936248,16.4395867 C55.4054917,17.3241805 54.2889972,17.6599552 53.3583512,17.2148636 L46.7167832,14.0384615 L44,24 L38,24 L42.5903955,12.0649718 L37.7080292,9.72992701 L32,24 L26,24 L33.6487387,7.74643026 Z" id="path-3"></path>
    </defs>
    <g id="Artboard-Copy-4" stroke="none" stroke-width="1" fill="none" fill-rule="evenodd" transform="translate(-275.000000, -852.000000)">
        <g id="gym" transform="translate(275.000000, 852.000000)">
            <g id="Group-2">
                <g id="gym_2">
                    <g>
                        <path d="M0.611706439,74.3961903 L10.790653,45.1622433 C15.8280509,30.6948304 29.4693896,21 44.7887047,21 L123.866892,21 C139.186207,21 152.827546,30.6948304 157.864943,45.1622433 L168.04389,74.3961903 C170.041555,80.1334864 167.009985,86.4039113 161.272689,88.4015762 C160.109731,88.8065057 158.887034,89.0132826 157.655596,89.0132826 L11,89.0132826 C4.92486775,89.0132826 2.7533531e-14,84.0884149 2.66453526e-14,78.0132826 C2.66453526e-14,76.7818449 0.206776987,75.5591482 0.611706439,74.3961903 Z" id="Path-6" fill="#EA401F"></path>
                        <path d="M29.5789474,88.6622993 L61.0526316,20.6622993 C62.570099,17.1137601 70.046667,3.5 75.1341448,3.5 L85.667336,3.5 C90.5942747,3.5 99.0919977,17.2684121 100.736842,20.6622993 C101.833405,22.9248907 115.061475,45.5915574 140.421053,88.6622993 L150,88.6622993 L110.315789,20.6622993 C107.316367,14.4734462 94.6517538,0 85.667336,0 L75.1341448,0 C65.8569794,0 54.2408307,14.1914337 51.4736842,20.6622993 L20,88.6622993 L29.5789474,88.6622993 Z" id="Path-7" fill="#FF8A7B" fill-rule="nonzero"></path>
                        <text id="GYM" font-family="JACKPORTCOLLEGENCV, JACKPORT COLLEGE NCV" font-size="30" font-weight="normal" letter-spacing="3.38040924" fill="#FFFFFF">
                            <tspan x="57.0993861" y="66">GYM</tspan>
                        </text>
                    </g>
                </g>
                <g id="Group-3" transform="translate(108.000000, 73.000000)">
                    <g id="Path-5">
                        <use fill="#4A90E2" xlink:href="#path-1"></use>
                        <use fill-opacity="0.189170063" fill="#000000" xlink:href="#path-1"></use>
                    </g>
                    <g id="Rectangle-2">
                        <use fill="#FFFFFF" xlink:href="#path-2"></use>
                        <use fill-opacity="0.189170063" fill="#000000" xlink:href="#path-2"></use>
                    </g>
                    <g id="Combined-Shape">
                        <use fill="#FFFFFF" xlink:href="#path-3"></use>
                        <use fill-opacity="0.189170063" fill="#000000" xlink:href="#path-3"></use>
                    </g>
                </g>
                <g id="Group-3-Copy" transform="translate(91.000000, 73.000000)">
                    <path d="M0,28 L0,21.7060521 C-3.81720052e-16,18.5890714 0.502508491,15.4924745 1.48818436,12.5354469 L4,5 L7.67007424,7.6214816 C9.80413981,9.14581415 12.4516134,9.77079789 15.0420819,9.36177654 L26.5428296,7.54586901 C28.5336948,7.23152187 30,5.51552931 30,3.5 L30,3.5 C30,2.28671238 30.9835639,1.30314844 32.1968516,1.30314844 C32.5275983,1.30314844 32.8540762,1.3778299 33.1519307,1.52162173 L59,14 L77,22 L77,28 L0,28 Z" id="Path-5" fill="#4A90E2"></path>
                    <rect id="Rectangle-2" fill="#FFFFFF" x="0" y="22" width="77" height="6"></rect>
                    <path d="M33.6487387,7.74643026 C32.8351453,7.14007482 32.5977384,6.00376936 33.1309221,5.11512988 L35,2 L58,13 L55.936248,16.4395867 C55.4054917,17.3241805 54.2889972,17.6599552 53.3583512,17.2148636 L46.7167832,14.0384615 L44,24 L38,24 L42.5903955,12.0649718 L37.7080292,9.72992701 L32,24 L26,24 L33.6487387,7.74643026 Z" id="Combined-Shape" fill="#FFFFFF"></path>
                </g>
            </g>
        </g>
    </g>
</svg>