<?xml version="1.0" encoding="UTF-8"?>
<svg width="150px" height="95px" viewBox="0 0 150 95" version="1.1" xmlns="http://www.w3.org/2000/svg" xmlns:xlink="http://www.w3.org/1999/xlink">
    <!-- Generator: Sketch 48.2 (47327) - http://www.bohemiancoding.com/sketch -->
    <title>laundry</title>
    <desc>Created with Sketch.</desc>
    <defs></defs>
    <g id="Artboard-Copy-4" stroke="none" stroke-width="1" fill="none" fill-rule="evenodd" transform="translate(-607.000000, -796.000000)">
        <g id="laundry" transform="translate(607.000000, 796.000000)">
            <g id="Group-4">
                <path d="M16.1483384,31.1311316 L27.441819,20.3509909 C30.2653659,17.6557871 34.305771,16.6587917 38.0589847,17.7311385 L41.4390915,18.6968833 C43.9894382,19.4255538 46.6612373,18.0162882 47.5,15.5 L47.5,15.5 C48.2750376,13.1748873 50.7882059,11.9183032 53.1133186,12.6933407 C53.2067443,12.7244826 53.2991074,12.7587258 53.3902547,12.7960133 L61.3199901,16.0399959 C66.7432935,18.2586201 69.4754544,24.3390914 67.5330903,29.8673584 L60.7304859,49.228617 C59.1119146,53.8353201 54.6503028,56.8237001 49.7742772,56.5670672 L26.0805295,55.3200279 C22.2973088,55.120911 18.882784,52.9890113 17.0429467,49.677304 L14.1278415,44.4301148 C11.6965743,40.0538337 12.5270138,34.5878505 16.1483384,31.1311316 Z" id="Path-10" fill="#F05E5E"></path>
                <path d="M110.024003,41.6530816 L115.383528,25.0872784 C116.434798,21.8378959 114.652877,18.3515274 111.403494,17.3002566 C110.788585,17.1013154 110.14629,17 109.5,17 L106.39001,17 C102.893213,17 99.4926952,15.8544484 96.7086778,13.7385951 L83.3077975,3.55392612 C78.8715642,0.182388802 72.8564381,-0.231746444 68,2.5 L68,2.5 C63.0582219,5.27975019 60,10.5088432 60,16.1787799 L60,34.4021404 C60,36.7711358 60.52606,39.1105711 61.5401946,41.2515219 L64.5,47.5 C67.1677646,53.1319475 73.2276851,56.3324708 79.3832636,55.3605373 L97.2962919,52.5321644 C103.249161,51.5922377 108.168888,47.3870736 110.024003,41.6530816 Z" id="Path-11" fill="#FFFFFF"></path>
                <path d="M113.944814,62.378067 L69.3332186,64.7679739 C60.7829747,65.2260227 53.4803105,58.6660023 53.0222617,50.1157584 C52.7375815,44.8017268 55.1982753,39.7130352 59.5403855,36.6363399 L94.4529439,11.8982986 C100.002723,7.96588403 107.103542,6.93839331 113.540386,9.13633994 L116.219587,10.0511891 C120.747336,11.5972499 123.790386,15.8519049 123.790386,20.6363399 L123.790386,20.6363399 C123.790386,25.5392685 126.56049,30.0213924 130.945803,32.2140487 L131.790386,32.6363399 C136.229381,34.8558375 138.067543,40.2255957 135.919921,44.6998073 L133.790386,49.1363399 C130.090696,56.8440265 122.4822,61.920707 113.944814,62.378067 Z" id="Path-12" fill="#6BCB9D"></path>
                <path d="M134.5,51 L125.80114,48.5146115 C124.607607,48.1736021 123.47421,47.6494733 122.441392,46.9609277 L112,40 C108.98354,37.9890265 108.168432,33.9134863 110.179405,30.8970261 C111.058517,29.5783586 112.385024,28.6222661 113.914022,28.2052668 L128.286082,24.2856139 C131.308235,23.4613906 134.532882,23.8516011 137.271206,25.3728924 L137.5,25.5 C140.324661,27.0692562 142.219679,29.9038869 142.590064,33.1138855 L143.748286,43.1518107 C144.209961,47.152995 141.340622,50.7708574 137.339437,51.2325325 C136.386875,51.3424436 135.421988,51.2634252 134.5,51 Z" id="Path-13" fill="#B8E986"></path>
                <path d="M85,54 L72.9657772,22.7110208 C71.0830153,17.8158398 67.1588291,13.9852961 62.2196115,12.2212898 L56,10 C48.2643399,7.23726424 39.7525693,11.2606997 36.9772793,18.9918647 L32.709647,30.8802692 C29.9369817,38.6041223 32.7395526,47.2255288 39.5239183,51.8426666 L65.455666,69.4906616 C71.4207402,73.550226 79.5473154,72.0055051 83.6068797,66.0404309 C86.0175514,62.4982195 86.5381154,57.9991 85,54 Z" id="Path-14" fill="#7A7A7A"></path>
                <path d="M0.986528017,37.7611381 C0.921357134,37.5126741 0.88836689,37.2568688 0.88836689,37 C0.88836689,35.3431458 2.23151264,34 3.88836689,34 L146.233478,34 C146.459319,34 146.684438,34.0255018 146.904556,34.0760206 C148.519425,34.4466464 149.528083,36.056208 149.157458,37.6710772 L137.603521,88.0132317 C136.665145,92.1018664 133.026518,95 128.831582,95 L22.9437892,95 C18.8526556,95 15.2762451,92.2406843 14.2382726,88.2834142 L0.986528017,37.7611381 Z M65,42 C62.2385763,42 60,44.2385763 60,47 C60,49.7614237 62.2385763,52 65,52 L85,52 C87.7614237,52 90,49.7614237 90,47 C90,44.2385763 87.7614237,42 85,42 L65,42 Z" id="Combined-Shape" fill="#F5A623"></path>
            </g>
        </g>
    </g>
</svg>