<?xml version="1.0" encoding="UTF-8"?>
<svg width="21px" height="31px" viewBox="0 0 21 31" version="1.1" xmlns="http://www.w3.org/2000/svg" xmlns:xlink="http://www.w3.org/1999/xlink">
    <!-- Generator: Sketch 48.2 (47327) - http://www.bohemiancoding.com/sketch -->
    <title>pin-blk</title>
    <desc>Created with Sketch.</desc>
    <defs></defs>
    <g id="step-2" stroke="none" stroke-width="1" fill="none" fill-rule="evenodd" transform="translate(-693.000000, -169.000000)">
        <g id="location" transform="translate(693.000000, 170.000000)" stroke="#4A4A4A">
            <path d="M10.2739418,30 L1.8827481,13.7359987 C-0.502103255,9.11362583 1.31176629,3.43314827 5.93413911,1.04829692 C7.26930398,0.359436486 8.74989842,2.75985678e-16 10.2522945,0 C15.4603027,-9.56695597e-16 19.6822276,4.22192487 19.6822276,9.42993314 C19.6822276,10.9306219 19.3240667,12.4096404 18.6375104,13.7440718 L10.2739418,30 Z M10.3331209,12 C11.7828684,12 12.9581209,10.8247475 12.9581209,9.375 C12.9581209,7.92525253 11.7828684,6.75 10.3331209,6.75 C8.88337344,6.75 7.70812091,7.92525253 7.70812091,9.375 C7.70812091,10.8247475 8.88337344,12 10.3331209,12 Z" id="pin-blk"></path>
        </g>
    </g>
</svg>