<?xml version="1.0" encoding="UTF-8"?>
<svg width="42px" height="52px" viewBox="0 0 42 52" version="1.1" xmlns="http://www.w3.org/2000/svg" xmlns:xlink="http://www.w3.org/1999/xlink">
    <!-- Generator: Sketch 48.2 (47327) - http://www.bohemiancoding.com/sketch -->
    <title>paperwork-icon</title>
    <desc>Created with Sketch.</desc>
    <defs></defs>
    <g id="Artboard-Copy-5" stroke="none" stroke-width="1" fill="none" fill-rule="evenodd" transform="translate(-51.000000, -329.000000)">
        <g id="info" transform="translate(50.000000, 43.000000)">
            <g id="paper-work" transform="translate(1.000000, 286.000000)">
                <g id="paperwork-icon">
                    <g>
                        <rect id="Rectangle-Copy" fill="#FFFFFF" x="0" y="0" width="42" height="52"></rect>
                        <path d="M23.2027368,22.0243917 L23.2027368,8.94189169 L27.3627368,8.94189169 L27.3627368,22.0243917 L27.3827368,22.0243917 L27.3827368,26.1843917 L27.3627368,26.1843917 L27.3627368,26.2668917 L23.2027368,26.2668917 L23.2027368,26.1843917 L15.8327368,26.1843917 L15.8327368,22.0243917 L23.2027368,22.0243917 Z" id="Combined-Shape" fill="#7ED321" transform="translate(21.607737, 17.604392) rotate(45.000000) translate(-21.607737, -17.604392) "></path>
                        <rect id="Rectangle-2" fill-opacity="0.500934103" fill="#9B9B9B" x="5.25" y="4.16" width="31.5" height="1.04"></rect>
                        <rect id="Rectangle-2-Copy" fill-opacity="0.500934103" fill="#9B9B9B" x="5.25" y="7.28" width="31.5" height="1.04"></rect>
                        <rect id="Rectangle-2-Copy-2" fill-opacity="0.500934103" fill="#9B9B9B" x="5.25" y="10.4" width="31.5" height="1.04"></rect>
                        <rect id="Rectangle-2-Copy-3" fill-opacity="0.500934103" fill="#9B9B9B" x="5.25" y="13.52" width="31.5" height="1.04"></rect>
                        <rect id="Rectangle-2-Copy-4" fill-opacity="0.500934103" fill="#9B9B9B" x="5.25" y="16.64" width="31.5" height="1.04"></rect>
                        <rect id="Rectangle-2-Copy-5" fill-opacity="0.500934103" fill="#9B9B9B" x="5.25" y="19.76" width="31.5" height="1.04"></rect>
                        <rect id="Rectangle-2-Copy-6" fill-opacity="0.500934103" fill="#9B9B9B" x="5.25" y="22.88" width="31.5" height="1.04"></rect>
                        <rect id="Rectangle-2-Copy-7" fill-opacity="0.500934103" fill="#9B9B9B" x="5.25" y="26" width="31.5" height="1.04"></rect>
                        <rect id="Rectangle-2-Copy-8" fill-opacity="0.500934103" fill="#9B9B9B" x="5.25" y="29.12" width="31.5" height="1.04"></rect>
                        <rect id="Rectangle-2-Copy-9" fill-opacity="0.500934103" fill="#9B9B9B" x="5.25" y="32.24" width="31.5" height="1.04"></rect>
                        <rect id="Rectangle-2-Copy-10" fill-opacity="0.500934103" fill="#9B9B9B" x="5.25" y="35.36" width="21" height="1.04"></rect>
                        <rect id="Rectangle-2-Copy-11" fill-opacity="0.500934103" fill="#9B9B9B" x="5.25" y="42.64" width="10.5" height="1.04"></rect>
                        <rect id="Rectangle-2-Copy-12" fill-opacity="0.500934103" fill="#9B9B9B" x="30.45" y="37.44" width="6.3" height="6.24" rx="3.12"></rect>
                    </g>
                </g>
            </g>
        </g>
    </g>
</svg>