<?xml version="1.0" encoding="UTF-8"?>
<svg width="101px" height="93px" viewBox="0 0 101 93" version="1.1" xmlns="http://www.w3.org/2000/svg" xmlns:xlink="http://www.w3.org/1999/xlink">
    <!-- Generator: Sketch 48.2 (47327) - http://www.bohemiancoding.com/sketch -->
    <title>PUG Copy</title>
    <desc>Created with Sketch.</desc>
    <defs></defs>
    <g id="Page-1" stroke="none" stroke-width="1" fill="none" fill-rule="evenodd">
        <g id="PUG" transform="translate(51.000000, 46.500000) scale(-1, 1) translate(-51.000000, -46.500000) ">
            <g id="Group-2" transform="translate(0.845304, 0.842900)">
                <path d="M14.9337017,19.1057402 L14.7629912,18.35675 C13.9645914,14.8537796 14.4630031,11.1810885 16.1663498,8.01569594 L17.1846082,6.12342851 C18.7671155,3.18259626 21.7407585,1.24604964 25.0773481,0.983383686 C28.334218,0.726993482 31.4380827,2.40311296 33.0024943,5.26304583 L35.7138,10.2196389 C36.5967769,11.8338271 36.3412603,13.8308041 35.0801105,15.1722054 L34.9022753,15.3613569 C33.6233715,16.7216421 32.099645,17.8303246 30.4103261,18.6297557 L22.0855966,22.5692412 C19.5437606,23.7721062 16.5053002,22.6925149 15.2990051,20.1579065 C15.1389426,19.8215909 15.0164391,19.4687499 14.9337017,19.1057402 Z" id="Path-8" fill="#9D8F81"></path>
                <path d="M0.282514093,78.6768819 L2.45352589,57.1332146 C2.5080419,56.7496862 2.62843019,56.3783938 2.80940609,56.0356361 L9.81340288,42.770477 C10.0311978,42.3579862 10.1608434,41.9049411 10.1941514,41.4399564 L10.6475273,35.1107414 C10.8726878,31.9674576 11.750047,28.905056 13.2240297,26.1175203 L15.0745856,22.6178248 C17.5790235,17.8815346 22.5496663,14.9602143 27.9181639,15.069464 L58.0478677,15.6826075 C59.6321137,15.7148471 61.1298308,14.9637558 62.0484967,13.676329 L69.9553895,2.59553645 C70.6113799,1.67622542 71.6850405,1.14504155 72.8159843,1.18028306 L94.7796446,1.86469581 C96.6050289,1.92157687 98.0552486,3.41356944 98.0552486,5.23465193 L98.0552486,19.8755072 C98.0552486,23.7263698 96.653539,27.4463414 94.1104972,30.3444109 L91.0023374,33.8864932 C90.4630164,34.5011074 90.1657459,35.2900283 90.1657459,36.1067081 L90.1657459,39.3353474 C90.1657459,42.3099184 89.6498929,45.2620863 88.6409879,48.0613654 L85.779499,56.00077 C85.6476552,56.36658 85.5802435,56.7523696 85.5802435,57.1410868 L85.5802435,87.2207544 C85.5802435,88.2859549 84.7142655,89.1494706 83.6460275,89.1494706 C82.4986121,89.1494706 81.4876626,88.3974184 81.1607796,87.3006779 L73.6965213,62.2569992 C73.2702212,60.8267 71.9518052,59.8459215 70.4554191,59.8459215 L67.0565052,59.8459215 C65.1891115,59.8459215 63.6752898,61.3554387 63.6752898,63.2175227 L63.6752898,88.5095355 C63.6752898,90.3716195 62.5524862,91.5951662 60.8618785,91.5951662 C59.1712707,91.5951662 58.1348188,90.6555761 57.7624309,89.1494706 L48.5346317,59.118123 C48.1622439,57.6120174 46.8073516,56.5536186 45.2517226,56.5536186 L38.0503029,56.5536186 C36.9794998,56.5536186 35.9719878,57.0593974 35.3342231,57.9171117 L29.9690031,65.1326655 C29.5370544,65.7135827 29.3038674,66.4175967 29.3038674,67.1407736 L29.3038674,78.2492447 C29.3038674,79.7233945 28.1054252,80.918429 26.6270718,80.918429 C25.0673029,80.918429 23.7210458,79.8282847 23.4009581,78.3060531 L20.499111,64.5058265 C20.3610438,63.8492247 20.4225568,63.1664787 20.6757807,62.5449306 L23.4730468,55.6789313 C23.6504586,55.243467 23.4402591,54.7470416 23.003553,54.5701342 C22.9015271,54.528804 22.7924441,54.5075529 22.6823204,54.5075529 C21.879272,54.5075529 21.1180958,54.8648128 20.6063416,55.4819186 L9.71498831,68.6154067 C9.43977339,68.9472784 9.23086558,69.3286514 9.09955996,69.7389058 L6.43270763,78.7778538 C5.95989952,80.3803752 4.48849443,81.4803625 2.81767956,81.4803625 L2.81767956,81.4803625 C1.41045503,81.4803625 0.269674152,80.3395817 0.269674152,78.9323571 C0.269674152,78.8470374 0.273959531,78.7617716 0.282514093,78.6768819 Z" id="Path-2" fill="#D4C2B1"></path>
                <path d="M61.8696388,2.69180539 L71.9794417,0.125718325 C72.7334775,-0.0656723099 73.5003395,0.388703645 73.6922759,1.14059543 C73.7963379,1.54824792 73.711729,1.98094767 73.4617059,2.31975649 L66.2929366,12.034229 C65.8317833,12.6591425 64.9499076,12.7929594 64.3232121,12.3331174 C64.1149758,12.1803226 63.9529194,11.9733361 63.8547896,11.7348249 L60.913756,4.58643951 C60.6184306,3.8686305 60.9625804,3.04800346 61.6824363,2.75351772 C61.7433153,2.72861276 61.8058692,2.7079915 61.8696388,2.69180539 Z" id="Path-6" fill="#000000"></path>
                <path d="M99.5833999,2.69180539 L89.473597,0.125718325 C88.7195611,-0.0656723099 87.9526991,0.388703645 87.7607627,1.14059543 C87.6567007,1.54824792 87.7413097,1.98094767 87.9913328,2.31975649 L95.1601021,12.034229 C95.6212554,12.6591425 96.5031311,12.7929594 97.1298266,12.3331174 C97.3380629,12.1803226 97.5001193,11.9733361 97.5982491,11.7348249 L100.539283,4.58643951 C100.834608,3.8686305 100.490458,3.04800346 99.7706024,2.75351772 C99.7097234,2.72861276 99.6471694,2.7079915 99.5833999,2.69180539 Z" id="Path-6-Copy" fill="#000000"></path>
                <path d="M69.3149171,17.8413897 L69.5772081,18.2555029 C70.4948326,19.7042771 70.8249178,21.4470603 70.5003986,23.129762 L70.2373497,24.4937267 C69.8341842,26.5842262 70.4446628,28.7418066 71.8841433,30.3138977 L73.502623,32.081478 C74.7838667,33.4807548 76.5963846,34.2779456 78.4965802,34.2779456 L85.6204977,34.2779456 C87.6096705,34.2779456 89.497954,33.4046519 90.7828447,31.8904625 L92.567083,29.7878131 C94.0531246,28.0365758 94.5298901,25.6456224 93.8287293,23.4607251 L93.5264698,22.5188501 C93.0112938,20.9135026 93.3363152,19.1575741 94.3922652,17.8413897 C95.2482944,16.7743958 95.0748072,15.2174506 94.0047707,14.3638555 C93.9487442,14.3191617 93.8907999,14.2769123 93.8311012,14.2372263 L88.7876303,10.8844729 C87.9097648,10.3008933 86.7236805,10.5374357 86.1384368,11.412805 C86.0573774,11.5340484 85.9905369,11.6641657 85.9392265,11.8006042 C85.4307704,13.1526318 84.1345798,14.0483384 82.6864962,14.0483384 L81.3024541,14.0483384 C79.8543705,14.0483384 78.5581799,13.1526318 78.0497238,11.8006042 C77.6573627,10.7572831 76.4911006,10.2286713 75.4448044,10.6199168 C75.335517,10.660783 75.2299808,10.7110024 75.1293766,10.770013 L70.3531704,13.5715574 C68.8929384,14.428075 68.4055111,16.3028058 69.2644711,17.7588857 C69.2808497,17.7866502 69.2976672,17.814155 69.3149171,17.8413897 Z" id="Path-7" fill="#000000"></path>
            </g>
        </g>
    </g>
</svg>