<?xml version="1.0" encoding="UTF-8" standalone="no"?>
<!DOCTYPE svg PUBLIC "-//W3C//DTD SVG 1.1//EN" "http://www.w3.org/Graphics/SVG/1.1/DTD/svg11.dtd">
<svg version="1.1" xmlns="http://www.w3.org/2000/svg" xmlns:xlink="http://www.w3.org/1999/xlink" preserveAspectRatio="xMidYMid meet" viewBox="0 0 88 88" width="88" height="88"><defs><path d="M379.45 -18.45C376 -18.45 374.28 -19.83 374.28 -22.58C374.28 280.52 374.28 448.9 374.28 482.58C374.28 479.83 376 478.45 379.45 478.45C124.86 478.45 -16.58 478.45 -44.87 478.45C-41.42 478.45 -39.7 479.83 -39.7 482.58C-39.7 179.48 -39.7 11.1 -39.7 -22.58C-39.7 -19.83 -41.42 -18.45 -44.87 -18.45C209.72 -18.45 351.16 -18.45 379.45 -18.45Z" id="b3QOevToz5"></path><path d="M810 831C803.33 831 800 827.67 800 821C800 1007 800 1110.33 800 1131C800 1124.33 803.33 1121 810 1121C318 1121 44.67 1121 -10 1121C-3.33 1121 0 1124.33 0 1131C0 945 0 841.67 0 821C0 827.67 -3.33 831 -10 831C482 831 755.33 831 810 831Z" id="aPTiOVfK3"></path><path d="M825 742C808.98 742 796 754.98 796 771C796 787.02 808.98 800 825 800C841.02 800 854 787.02 854 771C854 754.98 841.02 742 825 742Z" id="a4C4tksiX"></path><path d="M735 742C718.98 742 706 754.98 706 771C706 787.02 718.98 800 735 800C751.02 800 764 787.02 764 771C764 754.98 751.02 742 735 742Z" id="f7KLYOYkK"></path><path d="M644 742C627.98 742 615 754.98 615 771C615 787.02 627.98 800 644 800C660.02 800 673 787.02 673 771C673 754.98 660.02 742 644 742Z" id="d1q4Pgg4a"></path><path d="M554 742C537.98 742 525 754.98 525 771C525 787.02 537.98 800 554 800C570.02 800 583 787.02 583 771C583 754.98 570.02 742 554 742Z" id="bPoeyI4bT"></path><path d="M464 742C447.98 742 435 754.98 435 771C435 787.02 447.98 800 464 800C480.02 800 493 787.02 493 771C493 754.98 480.02 742 464 742Z" id="c1YABBjXJt"></path><path d="M374 742C357.98 742 345 754.98 345 771C345 787.02 357.98 800 374 800C390.02 800 403 787.02 403 771C403 754.98 390.02 742 374 742Z" id="a6MDuoZwBv"></path><path d="M284 742C267.98 742 255 754.98 255 771C255 787.02 267.98 800 284 800C300.02 800 313 787.02 313 771C313 754.98 300.02 742 284 742Z" id="b5R3pl2kq"></path><path d="M194 742C177.98 742 165 754.98 165 771C165 787.02 177.98 800 194 800C210.02 800 223 787.02 223 771C223 754.98 210.02 742 194 742Z" id="a7Gvm41fn"></path><path d="M104 742C87.98 742 75 754.98 75 771C75 787.02 87.98 800 104 800C120.02 800 133 787.02 133 771C133 754.98 120.02 742 104 742Z" id="c1ilByO35E"></path><path d="M14 742C-2.02 742 -15 754.98 -15 771C-15 787.02 -2.02 800 14 800C30.02 800 43 787.02 43 771C43 754.98 30.02 742 14 742Z" id="b1VNebEFvQ"></path><path d="M825 652C808.98 652 796 664.98 796 681C796 697.02 808.98 710 825 710C841.02 710 854 697.02 854 681C854 664.98 841.02 652 825 652Z" id="gzERX0Oyn"></path><path d="M735 652C718.98 652 706 664.98 706 681C706 697.02 718.98 710 735 710C751.02 710 764 697.02 764 681C764 664.98 751.02 652 735 652Z" id="gc3pr1il5"></path><path d="M644 652C627.98 652 615 664.98 615 681C615 697.02 627.98 710 644 710C660.02 710 673 697.02 673 681C673 664.98 660.02 652 644 652Z" id="l1ZwKvzySc"></path><path d="M554 652C537.98 652 525 664.98 525 681C525 697.02 537.98 710 554 710C570.02 710 583 697.02 583 681C583 664.98 570.02 652 554 652Z" id="f13bcL9DMv"></path><path d="M464 652C447.98 652 435 664.98 435 681C435 697.02 447.98 710 464 710C480.02 710 493 697.02 493 681C493 664.98 480.02 652 464 652Z" id="cbA1xEfdK"></path><path d="M374 652C357.98 652 345 664.98 345 681C345 697.02 357.98 710 374 710C390.02 710 403 697.02 403 681C403 664.98 390.02 652 374 652Z" id="auiCuFk5M"></path><path d="M284 652C267.98 652 255 664.98 255 681C255 697.02 267.98 710 284 710C300.02 710 313 697.02 313 681C313 664.98 300.02 652 284 652Z" id="d1r1NZDPWm"></path><path d="M194 652C177.98 652 165 664.98 165 681C165 697.02 177.98 710 194 710C210.02 710 223 697.02 223 681C223 664.98 210.02 652 194 652Z" id="b9nJpeBN"></path><path d="M104 652C87.98 652 75 664.98 75 681C75 697.02 87.98 710 104 710C120.02 710 133 697.02 133 681C133 664.98 120.02 652 104 652Z" id="d1UPAzfPv8"></path><path d="M14 652C-2.02 652 -15 664.98 -15 681C-15 697.02 -2.02 710 14 710C30.02 710 43 697.02 43 681C43 664.98 30.02 652 14 652Z" id="a1uIICI8mM"></path><path d="M825 562C808.98 562 796 574.98 796 591C796 607.02 808.98 620 825 620C841.02 620 854 607.02 854 591C854 574.98 841.02 562 825 562Z" id="ad8tF4aaU"></path><path d="M735 562C718.98 562 706 574.98 706 591C706 607.02 718.98 620 735 620C751.02 620 764 607.02 764 591C764 574.98 751.02 562 735 562Z" id="aH4bmDcg4"></path><path d="M644 562C627.98 562 615 574.98 615 591C615 607.02 627.98 620 644 620C660.02 620 673 607.02 673 591C673 574.98 660.02 562 644 562Z" id="j6nqVB2a7c"></path><path d="M554 562C537.98 562 525 574.98 525 591C525 607.02 537.98 620 554 620C570.02 620 583 607.02 583 591C583 574.98 570.02 562 554 562Z" id="g15GQpzGGK"></path><path d="M464 562C447.98 562 435 574.98 435 591C435 607.02 447.98 620 464 620C480.02 620 493 607.02 493 591C493 574.98 480.02 562 464 562Z" id="a1bOPDGicJ"></path><path d="M374 562C357.98 562 345 574.98 345 591C345 607.02 357.98 620 374 620C390.02 620 403 607.02 403 591C403 574.98 390.02 562 374 562Z" id="aNo9LfSzQ"></path><path d="M284 562C267.98 562 255 574.98 255 591C255 607.02 267.98 620 284 620C300.02 620 313 607.02 313 591C313 574.98 300.02 562 284 562Z" id="g2XA2J211j"></path><path d="M194 562C177.98 562 165 574.98 165 591C165 607.02 177.98 620 194 620C210.02 620 223 607.02 223 591C223 574.98 210.02 562 194 562Z" id="ddsLwrSkD"></path><path d="M104 562C87.98 562 75 574.98 75 591C75 607.02 87.98 620 104 620C120.02 620 133 607.02 133 591C133 574.98 120.02 562 104 562Z" id="mTcWIObmF"></path><path d="M14 562C-2.02 562 -15 574.98 -15 591C-15 607.02 -2.02 620 14 620C30.02 620 43 607.02 43 591C43 574.98 30.02 562 14 562Z" id="gAzdocFTH"></path><path d="M825 471C808.98 471 796 483.98 796 500C796 516.02 808.98 529 825 529C841.02 529 854 516.02 854 500C854 483.98 841.02 471 825 471Z" id="b4WQC3RZig"></path><path d="M735 471C718.98 471 706 483.98 706 500C706 516.02 718.98 529 735 529C751.02 529 764 516.02 764 500C764 483.98 751.02 471 735 471Z" id="n5cXTGpxCI"></path><path d="M644 471C627.98 471 615 483.98 615 500C615 516.02 627.98 529 644 529C660.02 529 673 516.02 673 500C673 483.98 660.02 471 644 471Z" id="a2yzY98xtt"></path><path d="M554 471C537.98 471 525 483.98 525 500C525 516.02 537.98 529 554 529C570.02 529 583 516.02 583 500C583 483.98 570.02 471 554 471Z" id="b3ian9cjV"></path><path d="M464 471C447.98 471 435 483.98 435 500C435 516.02 447.98 529 464 529C480.02 529 493 516.02 493 500C493 483.98 480.02 471 464 471Z" id="b8pA7WqvJ"></path><path d="M374 471C357.98 471 345 483.98 345 500C345 516.02 357.98 529 374 529C390.02 529 403 516.02 403 500C403 483.98 390.02 471 374 471Z" id="cl0cFQfJl"></path><path d="M284 471C267.98 471 255 483.98 255 500C255 516.02 267.98 529 284 529C300.02 529 313 516.02 313 500C313 483.98 300.02 471 284 471Z" id="e1btGj425"></path><path d="M194 471C177.98 471 165 483.98 165 500C165 516.02 177.98 529 194 529C210.02 529 223 516.02 223 500C223 483.98 210.02 471 194 471Z" id="a49SwdRpk2"></path><path d="M104 471C87.98 471 75 483.98 75 500C75 516.02 87.98 529 104 529C120.02 529 133 516.02 133 500C133 483.98 120.02 471 104 471Z" id="c1MrRFdaHm"></path><path d="M14 471C-2.02 471 -15 483.98 -15 500C-15 516.02 -2.02 529 14 529C30.02 529 43 516.02 43 500C43 483.98 30.02 471 14 471Z" id="bBfuZ6UpZ"></path><path d="M825 381C808.98 381 796 393.98 796 410C796 426.02 808.98 439 825 439C841.02 439 854 426.02 854 410C854 393.98 841.02 381 825 381Z" id="b25F4Svs6B"></path><path d="M735 381C718.98 381 706 393.98 706 410C706 426.02 718.98 439 735 439C751.02 439 764 426.02 764 410C764 393.98 751.02 381 735 381Z" id="c3bmaxCJY"></path><path d="M644 381C627.98 381 615 393.98 615 410C615 426.02 627.98 439 644 439C660.02 439 673 426.02 673 410C673 393.98 660.02 381 644 381Z" id="a3qjYiw0kW"></path><path d="M554 381C537.98 381 525 393.98 525 410C525 426.02 537.98 439 554 439C570.02 439 583 426.02 583 410C583 393.98 570.02 381 554 381Z" id="a5vs1ZaLx"></path><path d="M464 381C447.98 381 435 393.98 435 410C435 426.02 447.98 439 464 439C480.02 439 493 426.02 493 410C493 393.98 480.02 381 464 381Z" id="f3bhaXrghq"></path><path d="M374 381C357.98 381 345 393.98 345 410C345 426.02 357.98 439 374 439C390.02 439 403 426.02 403 410C403 393.98 390.02 381 374 381Z" id="c1MFvLGnH"></path><path d="M284 381C267.98 381 255 393.98 255 410C255 426.02 267.98 439 284 439C300.02 439 313 426.02 313 410C313 393.98 300.02 381 284 381Z" id="f1qikMovR"></path><path d="M194 381C177.98 381 165 393.98 165 410C165 426.02 177.98 439 194 439C210.02 439 223 426.02 223 410C223 393.98 210.02 381 194 381Z" id="aP7MqhdsJ"></path><path d="M104 381C87.98 381 75 393.98 75 410C75 426.02 87.98 439 104 439C120.02 439 133 426.02 133 410C133 393.98 120.02 381 104 381Z" id="d1GMYnAtvV"></path><path d="M14 381C-2.02 381 -15 393.98 -15 410C-15 426.02 -2.02 439 14 439C30.02 439 43 426.02 43 410C43 393.98 30.02 381 14 381Z" id="cs4JmIoSO"></path><path d="M825 291C808.98 291 796 303.98 796 320C796 336.02 808.98 349 825 349C841.02 349 854 336.02 854 320C854 303.98 841.02 291 825 291Z" id="eYFBhZCVQ"></path><path d="M735 291C718.98 291 706 303.98 706 320C706 336.02 718.98 349 735 349C751.02 349 764 336.02 764 320C764 303.98 751.02 291 735 291Z" id="b1Q7vDkInJ"></path><path d="M644 291C627.98 291 615 303.98 615 320C615 336.02 627.98 349 644 349C660.02 349 673 336.02 673 320C673 303.98 660.02 291 644 291Z" id="c4Z3z8Lioa"></path><path d="M554 291C537.98 291 525 303.98 525 320C525 336.02 537.98 349 554 349C570.02 349 583 336.02 583 320C583 303.98 570.02 291 554 291Z" id="c2tJN5qLsa"></path><path d="M464 291C447.98 291 435 303.98 435 320C435 336.02 447.98 349 464 349C480.02 349 493 336.02 493 320C493 303.98 480.02 291 464 291Z" id="d2metvk0r6"></path><path d="M374 291C357.98 291 345 303.98 345 320C345 336.02 357.98 349 374 349C390.02 349 403 336.02 403 320C403 303.98 390.02 291 374 291Z" id="awfcqVbz6"></path><path d="M284 291C267.98 291 255 303.98 255 320C255 336.02 267.98 349 284 349C300.02 349 313 336.02 313 320C313 303.98 300.02 291 284 291Z" id="a23Z8uBd"></path><path d="M194 291C177.98 291 165 303.98 165 320C165 336.02 177.98 349 194 349C210.02 349 223 336.02 223 320C223 303.98 210.02 291 194 291Z" id="crLHvVcpL"></path><path d="M104 291C87.98 291 75 303.98 75 320C75 336.02 87.98 349 104 349C120.02 349 133 336.02 133 320C133 303.98 120.02 291 104 291Z" id="g2htZukIjX"></path><path d="M14 291C-2.02 291 -15 303.98 -15 320C-15 336.02 -2.02 349 14 349C30.02 349 43 336.02 43 320C43 303.98 30.02 291 14 291Z" id="a70l505Kt"></path><path d="M825 201C808.98 201 796 213.98 796 230C796 246.02 808.98 259 825 259C841.02 259 854 246.02 854 230C854 213.98 841.02 201 825 201Z" id="e1heaGJwJy"></path><path d="M735 201C718.98 201 706 213.98 706 230C706 246.02 718.98 259 735 259C751.02 259 764 246.02 764 230C764 213.98 751.02 201 735 201Z" id="asO7D9hwJ"></path><path d="M644 201C627.98 201 615 213.98 615 230C615 246.02 627.98 259 644 259C660.02 259 673 246.02 673 230C673 213.98 660.02 201 644 201Z" id="d6F7YKJlC"></path><path d="M554 201C537.98 201 525 213.98 525 230C525 246.02 537.98 259 554 259C570.02 259 583 246.02 583 230C583 213.98 570.02 201 554 201Z" id="cUrZQNa62"></path><path d="M464 201C447.98 201 435 213.98 435 230C435 246.02 447.98 259 464 259C480.02 259 493 246.02 493 230C493 213.98 480.02 201 464 201Z" id="bM28gyTy5"></path><path d="M374 201C357.98 201 345 213.98 345 230C345 246.02 357.98 259 374 259C390.02 259 403 246.02 403 230C403 213.98 390.02 201 374 201Z" id="a7ZXM8kjs"></path><path d="M284 201C267.98 201 255 213.98 255 230C255 246.02 267.98 259 284 259C300.02 259 313 246.02 313 230C313 213.98 300.02 201 284 201Z" id="bxi41Ukns"></path><path d="M194 201C177.98 201 165 213.98 165 230C165 246.02 177.98 259 194 259C210.02 259 223 246.02 223 230C223 213.98 210.02 201 194 201Z" id="cbgeVQZA0"></path><path d="M104 201C87.98 201 75 213.98 75 230C75 246.02 87.98 259 104 259C120.02 259 133 246.02 133 230C133 213.98 120.02 201 104 201Z" id="c42p81sQ7x"></path><path d="M14 201C-2.02 201 -15 213.98 -15 230C-15 246.02 -2.02 259 14 259C30.02 259 43 246.02 43 230C43 213.98 30.02 201 14 201Z" id="b1VCeoAnSX"></path><path d="M825 111C808.98 111 796 123.98 796 140C796 156.02 808.98 169 825 169C841.02 169 854 156.02 854 140C854 123.98 841.02 111 825 111Z" id="brremuRiR"></path><path d="M735 111C718.98 111 706 123.98 706 140C706 156.02 718.98 169 735 169C751.02 169 764 156.02 764 140C764 123.98 751.02 111 735 111Z" id="b3s1PXjSoh"></path><path d="M644 111C627.98 111 615 123.98 615 140C615 156.02 627.98 169 644 169C660.02 169 673 156.02 673 140C673 123.98 660.02 111 644 111Z" id="cfU6fN2pu"></path><path d="M554 111C537.98 111 525 123.98 525 140C525 156.02 537.98 169 554 169C570.02 169 583 156.02 583 140C583 123.98 570.02 111 554 111Z" id="g1ZYDlvOXk"></path><path d="M464 111C447.98 111 435 123.98 435 140C435 156.02 447.98 169 464 169C480.02 169 493 156.02 493 140C493 123.98 480.02 111 464 111Z" id="b3gRnuYI4S"></path><path d="M374 111C357.98 111 345 123.98 345 140C345 156.02 357.98 169 374 169C390.02 169 403 156.02 403 140C403 123.98 390.02 111 374 111Z" id="j2vLELD110"></path><path d="M284 111C267.98 111 255 123.98 255 140C255 156.02 267.98 169 284 169C300.02 169 313 156.02 313 140C313 123.98 300.02 111 284 111Z" id="bNYkU6lQK"></path><path d="M194 111C177.98 111 165 123.98 165 140C165 156.02 177.98 169 194 169C210.02 169 223 156.02 223 140C223 123.98 210.02 111 194 111Z" id="b1y4ESx7CP"></path><path d="M104 111C87.98 111 75 123.98 75 140C75 156.02 87.98 169 104 169C120.02 169 133 156.02 133 140C133 123.98 120.02 111 104 111Z" id="d7ukIKqDs"></path><path d="M14 111C-2.02 111 -15 123.98 -15 140C-15 156.02 -2.02 169 14 169C30.02 169 43 156.02 43 140C43 123.98 30.02 111 14 111Z" id="dD5gPHML"></path><path d="M825 21C808.98 21 796 33.98 796 50C796 66.02 808.98 79 825 79C841.02 79 854 66.02 854 50C854 33.98 841.02 21 825 21Z" id="f2HRvk2526"></path><path d="M735 21C718.98 21 706 33.98 706 50C706 66.02 718.98 79 735 79C751.02 79 764 66.02 764 50C764 33.98 751.02 21 735 21Z" id="gA0ZM6821"></path><path d="M644 21C627.98 21 615 33.98 615 50C615 66.02 627.98 79 644 79C660.02 79 673 66.02 673 50C673 33.98 660.02 21 644 21Z" id="a3JVmoQ2He"></path><path d="M554 21C537.98 21 525 33.98 525 50C525 66.02 537.98 79 554 79C570.02 79 583 66.02 583 50C583 33.98 570.02 21 554 21Z" id="a1BBrYwcCI"></path><path d="M464 21C447.98 21 435 33.98 435 50C435 66.02 447.98 79 464 79C480.02 79 493 66.02 493 50C493 33.98 480.02 21 464 21Z" id="b7LJRwEhJ"></path><path d="M374 21C357.98 21 345 33.98 345 50C345 66.02 357.98 79 374 79C390.02 79 403 66.02 403 50C403 33.98 390.02 21 374 21Z" id="d2oBoKTVPU"></path><path d="M284 21C267.98 21 255 33.98 255 50C255 66.02 267.98 79 284 79C300.02 79 313 66.02 313 50C313 33.98 300.02 21 284 21Z" id="a2jkBdzEpM"></path><path d="M194 21C177.98 21 165 33.98 165 50C165 66.02 177.98 79 194 79C210.02 79 223 66.02 223 50C223 33.98 210.02 21 194 21Z" id="d1zStfXhMt"></path><path d="M184.65 16.7C168.63 16.7 155.65 29.68 155.65 45.7C155.65 61.72 168.63 74.7 184.65 74.7C200.66 74.7 213.65 61.72 213.65 45.7C213.65 29.68 200.66 16.7 184.65 16.7Z" id="apN5ORLMz"></path><path d="M45 16.7C28.98 16.7 16 29.68 16 45.7C16 61.72 28.98 74.7 45 74.7C61.02 74.7 74 61.72 74 45.7C74 29.68 61.02 16.7 45 16.7Z" id="csuzcWsPU"></path></defs><g><g><g><use xlink:href="#b3QOevToz5" opacity="1" fill="#3e3e3e" fill-opacity="1"></use><g><use xlink:href="#b3QOevToz5" opacity="1" fill-opacity="0" stroke="#000000" stroke-width="1" stroke-opacity="0"></use></g></g><g><use xlink:href="#aPTiOVfK3" opacity="1" fill="#353535" fill-opacity="1"></use><g><use xlink:href="#aPTiOVfK3" opacity="1" fill-opacity="0" stroke="#000000" stroke-width="1" stroke-opacity="0"></use></g></g><g><use xlink:href="#a4C4tksiX" opacity="1" fill="#000000" fill-opacity="0"></use><g><use xlink:href="#a4C4tksiX" opacity="1" fill-opacity="0" stroke="#ffffff" stroke-width="16" stroke-opacity="1"></use></g></g><g><use xlink:href="#f7KLYOYkK" opacity="1" fill="#000000" fill-opacity="0"></use><g><use xlink:href="#f7KLYOYkK" opacity="1" fill-opacity="0" stroke="#ffffff" stroke-width="16" stroke-opacity="1"></use></g></g><g><use xlink:href="#d1q4Pgg4a" opacity="1" fill="#000000" fill-opacity="0"></use><g><use xlink:href="#d1q4Pgg4a" opacity="1" fill-opacity="0" stroke="#ffffff" stroke-width="16" stroke-opacity="1"></use></g></g><g><use xlink:href="#bPoeyI4bT" opacity="1" fill="#000000" fill-opacity="0"></use><g><use xlink:href="#bPoeyI4bT" opacity="1" fill-opacity="0" stroke="#ffffff" stroke-width="16" stroke-opacity="1"></use></g></g><g><use xlink:href="#c1YABBjXJt" opacity="1" fill="#000000" fill-opacity="0"></use><g><use xlink:href="#c1YABBjXJt" opacity="1" fill-opacity="0" stroke="#ffffff" stroke-width="16" stroke-opacity="1"></use></g></g><g><use xlink:href="#a6MDuoZwBv" opacity="1" fill="#000000" fill-opacity="0"></use><g><use xlink:href="#a6MDuoZwBv" opacity="1" fill-opacity="0" stroke="#ffffff" stroke-width="16" stroke-opacity="1"></use></g></g><g><use xlink:href="#b5R3pl2kq" opacity="1" fill="#000000" fill-opacity="0"></use><g><use xlink:href="#b5R3pl2kq" opacity="1" fill-opacity="0" stroke="#ffffff" stroke-width="16" stroke-opacity="1"></use></g></g><g><use xlink:href="#a7Gvm41fn" opacity="1" fill="#000000" fill-opacity="0"></use><g><use xlink:href="#a7Gvm41fn" opacity="1" fill-opacity="0" stroke="#ffffff" stroke-width="16" stroke-opacity="1"></use></g></g><g><use xlink:href="#c1ilByO35E" opacity="1" fill="#000000" fill-opacity="0"></use><g><use xlink:href="#c1ilByO35E" opacity="1" fill-opacity="0" stroke="#ffffff" stroke-width="16" stroke-opacity="1"></use></g></g><g><use xlink:href="#b1VNebEFvQ" opacity="1" fill="#000000" fill-opacity="0"></use><g><use xlink:href="#b1VNebEFvQ" opacity="1" fill-opacity="0" stroke="#ffffff" stroke-width="16" stroke-opacity="1"></use></g></g><g><use xlink:href="#gzERX0Oyn" opacity="1" fill="#000000" fill-opacity="0"></use><g><use xlink:href="#gzERX0Oyn" opacity="1" fill-opacity="0" stroke="#ffffff" stroke-width="16" stroke-opacity="1"></use></g></g><g><use xlink:href="#gc3pr1il5" opacity="1" fill="#000000" fill-opacity="0"></use><g><use xlink:href="#gc3pr1il5" opacity="1" fill-opacity="0" stroke="#ffffff" stroke-width="16" stroke-opacity="1"></use></g></g><g><use xlink:href="#l1ZwKvzySc" opacity="1" fill="#000000" fill-opacity="0"></use><g><use xlink:href="#l1ZwKvzySc" opacity="1" fill-opacity="0" stroke="#ffffff" stroke-width="16" stroke-opacity="1"></use></g></g><g><use xlink:href="#f13bcL9DMv" opacity="1" fill="#000000" fill-opacity="0"></use><g><use xlink:href="#f13bcL9DMv" opacity="1" fill-opacity="0" stroke="#ffffff" stroke-width="16" stroke-opacity="1"></use></g></g><g><use xlink:href="#cbA1xEfdK" opacity="1" fill="#000000" fill-opacity="0"></use><g><use xlink:href="#cbA1xEfdK" opacity="1" fill-opacity="0" stroke="#ffffff" stroke-width="16" stroke-opacity="1"></use></g></g><g><use xlink:href="#auiCuFk5M" opacity="1" fill="#000000" fill-opacity="0"></use><g><use xlink:href="#auiCuFk5M" opacity="1" fill-opacity="0" stroke="#ffffff" stroke-width="16" stroke-opacity="1"></use></g></g><g><use xlink:href="#d1r1NZDPWm" opacity="1" fill="#000000" fill-opacity="0"></use><g><use xlink:href="#d1r1NZDPWm" opacity="1" fill-opacity="0" stroke="#ffffff" stroke-width="16" stroke-opacity="1"></use></g></g><g><use xlink:href="#b9nJpeBN" opacity="1" fill="#000000" fill-opacity="0"></use><g><use xlink:href="#b9nJpeBN" opacity="1" fill-opacity="0" stroke="#ffffff" stroke-width="16" stroke-opacity="1"></use></g></g><g><use xlink:href="#d1UPAzfPv8" opacity="1" fill="#000000" fill-opacity="0"></use><g><use xlink:href="#d1UPAzfPv8" opacity="1" fill-opacity="0" stroke="#ffffff" stroke-width="16" stroke-opacity="1"></use></g></g><g><use xlink:href="#a1uIICI8mM" opacity="1" fill="#000000" fill-opacity="0"></use><g><use xlink:href="#a1uIICI8mM" opacity="1" fill-opacity="0" stroke="#ffffff" stroke-width="16" stroke-opacity="1"></use></g></g><g><use xlink:href="#ad8tF4aaU" opacity="1" fill="#000000" fill-opacity="0"></use><g><use xlink:href="#ad8tF4aaU" opacity="1" fill-opacity="0" stroke="#ffffff" stroke-width="16" stroke-opacity="1"></use></g></g><g><use xlink:href="#aH4bmDcg4" opacity="1" fill="#000000" fill-opacity="0"></use><g><use xlink:href="#aH4bmDcg4" opacity="1" fill-opacity="0" stroke="#ffffff" stroke-width="16" stroke-opacity="1"></use></g></g><g><use xlink:href="#j6nqVB2a7c" opacity="1" fill="#000000" fill-opacity="0"></use><g><use xlink:href="#j6nqVB2a7c" opacity="1" fill-opacity="0" stroke="#ffffff" stroke-width="16" stroke-opacity="1"></use></g></g><g><use xlink:href="#g15GQpzGGK" opacity="1" fill="#000000" fill-opacity="0"></use><g><use xlink:href="#g15GQpzGGK" opacity="1" fill-opacity="0" stroke="#ffffff" stroke-width="16" stroke-opacity="1"></use></g></g><g><use xlink:href="#a1bOPDGicJ" opacity="1" fill="#000000" fill-opacity="0"></use><g><use xlink:href="#a1bOPDGicJ" opacity="1" fill-opacity="0" stroke="#ffffff" stroke-width="16" stroke-opacity="1"></use></g></g><g><use xlink:href="#aNo9LfSzQ" opacity="1" fill="#000000" fill-opacity="0"></use><g><use xlink:href="#aNo9LfSzQ" opacity="1" fill-opacity="0" stroke="#ffffff" stroke-width="16" stroke-opacity="1"></use></g></g><g><use xlink:href="#g2XA2J211j" opacity="1" fill="#000000" fill-opacity="0"></use><g><use xlink:href="#g2XA2J211j" opacity="1" fill-opacity="0" stroke="#ffffff" stroke-width="16" stroke-opacity="1"></use></g></g><g><use xlink:href="#ddsLwrSkD" opacity="1" fill="#000000" fill-opacity="0"></use><g><use xlink:href="#ddsLwrSkD" opacity="1" fill-opacity="0" stroke="#ffffff" stroke-width="16" stroke-opacity="1"></use></g></g><g><use xlink:href="#mTcWIObmF" opacity="1" fill="#000000" fill-opacity="0"></use><g><use xlink:href="#mTcWIObmF" opacity="1" fill-opacity="0" stroke="#ffffff" stroke-width="16" stroke-opacity="1"></use></g></g><g><use xlink:href="#gAzdocFTH" opacity="1" fill="#000000" fill-opacity="0"></use><g><use xlink:href="#gAzdocFTH" opacity="1" fill-opacity="0" stroke="#ffffff" stroke-width="16" stroke-opacity="1"></use></g></g><g><use xlink:href="#b4WQC3RZig" opacity="1" fill="#000000" fill-opacity="0"></use><g><use xlink:href="#b4WQC3RZig" opacity="1" fill-opacity="0" stroke="#ffffff" stroke-width="16" stroke-opacity="1"></use></g></g><g><use xlink:href="#n5cXTGpxCI" opacity="1" fill="#000000" fill-opacity="0"></use><g><use xlink:href="#n5cXTGpxCI" opacity="1" fill-opacity="0" stroke="#ffffff" stroke-width="16" stroke-opacity="1"></use></g></g><g><use xlink:href="#a2yzY98xtt" opacity="1" fill="#000000" fill-opacity="0"></use><g><use xlink:href="#a2yzY98xtt" opacity="1" fill-opacity="0" stroke="#ffffff" stroke-width="16" stroke-opacity="1"></use></g></g><g><use xlink:href="#b3ian9cjV" opacity="1" fill="#000000" fill-opacity="0"></use><g><use xlink:href="#b3ian9cjV" opacity="1" fill-opacity="0" stroke="#ffffff" stroke-width="16" stroke-opacity="1"></use></g></g><g><use xlink:href="#b8pA7WqvJ" opacity="1" fill="#000000" fill-opacity="0"></use><g><use xlink:href="#b8pA7WqvJ" opacity="1" fill-opacity="0" stroke="#ffffff" stroke-width="16" stroke-opacity="1"></use></g></g><g><use xlink:href="#cl0cFQfJl" opacity="1" fill="#000000" fill-opacity="0"></use><g><use xlink:href="#cl0cFQfJl" opacity="1" fill-opacity="0" stroke="#ffffff" stroke-width="16" stroke-opacity="1"></use></g></g><g><use xlink:href="#e1btGj425" opacity="1" fill="#000000" fill-opacity="0"></use><g><use xlink:href="#e1btGj425" opacity="1" fill-opacity="0" stroke="#ffffff" stroke-width="16" stroke-opacity="1"></use></g></g><g><use xlink:href="#a49SwdRpk2" opacity="1" fill="#000000" fill-opacity="0"></use><g><use xlink:href="#a49SwdRpk2" opacity="1" fill-opacity="0" stroke="#ffffff" stroke-width="16" stroke-opacity="1"></use></g></g><g><use xlink:href="#c1MrRFdaHm" opacity="1" fill="#000000" fill-opacity="0"></use><g><use xlink:href="#c1MrRFdaHm" opacity="1" fill-opacity="0" stroke="#ffffff" stroke-width="16" stroke-opacity="1"></use></g></g><g><use xlink:href="#bBfuZ6UpZ" opacity="1" fill="#000000" fill-opacity="0"></use><g><use xlink:href="#bBfuZ6UpZ" opacity="1" fill-opacity="0" stroke="#ffffff" stroke-width="16" stroke-opacity="1"></use></g></g><g><use xlink:href="#b25F4Svs6B" opacity="1" fill="#000000" fill-opacity="0"></use><g><use xlink:href="#b25F4Svs6B" opacity="1" fill-opacity="0" stroke="#ffffff" stroke-width="16" stroke-opacity="1"></use></g></g><g><use xlink:href="#c3bmaxCJY" opacity="1" fill="#000000" fill-opacity="0"></use><g><use xlink:href="#c3bmaxCJY" opacity="1" fill-opacity="0" stroke="#ffffff" stroke-width="16" stroke-opacity="1"></use></g></g><g><use xlink:href="#a3qjYiw0kW" opacity="1" fill="#000000" fill-opacity="0"></use><g><use xlink:href="#a3qjYiw0kW" opacity="1" fill-opacity="0" stroke="#ffffff" stroke-width="16" stroke-opacity="1"></use></g></g><g><use xlink:href="#a5vs1ZaLx" opacity="1" fill="#000000" fill-opacity="0"></use><g><use xlink:href="#a5vs1ZaLx" opacity="1" fill-opacity="0" stroke="#ffffff" stroke-width="16" stroke-opacity="1"></use></g></g><g><use xlink:href="#f3bhaXrghq" opacity="1" fill="#000000" fill-opacity="0"></use><g><use xlink:href="#f3bhaXrghq" opacity="1" fill-opacity="0" stroke="#ffffff" stroke-width="16" stroke-opacity="1"></use></g></g><g><use xlink:href="#c1MFvLGnH" opacity="1" fill="#000000" fill-opacity="0"></use><g><use xlink:href="#c1MFvLGnH" opacity="1" fill-opacity="0" stroke="#ffffff" stroke-width="16" stroke-opacity="1"></use></g></g><g><use xlink:href="#f1qikMovR" opacity="1" fill="#000000" fill-opacity="0"></use><g><use xlink:href="#f1qikMovR" opacity="1" fill-opacity="0" stroke="#ffffff" stroke-width="16" stroke-opacity="1"></use></g></g><g><use xlink:href="#aP7MqhdsJ" opacity="1" fill="#000000" fill-opacity="0"></use><g><use xlink:href="#aP7MqhdsJ" opacity="1" fill-opacity="0" stroke="#ffffff" stroke-width="16" stroke-opacity="1"></use></g></g><g><use xlink:href="#d1GMYnAtvV" opacity="1" fill="#000000" fill-opacity="0"></use><g><use xlink:href="#d1GMYnAtvV" opacity="1" fill-opacity="0" stroke="#ffffff" stroke-width="16" stroke-opacity="1"></use></g></g><g><use xlink:href="#cs4JmIoSO" opacity="1" fill="#000000" fill-opacity="0"></use><g><use xlink:href="#cs4JmIoSO" opacity="1" fill-opacity="0" stroke="#ffffff" stroke-width="16" stroke-opacity="1"></use></g></g><g><use xlink:href="#eYFBhZCVQ" opacity="1" fill="#000000" fill-opacity="0"></use><g><use xlink:href="#eYFBhZCVQ" opacity="1" fill-opacity="0" stroke="#ffffff" stroke-width="16" stroke-opacity="1"></use></g></g><g><use xlink:href="#b1Q7vDkInJ" opacity="1" fill="#000000" fill-opacity="0"></use><g><use xlink:href="#b1Q7vDkInJ" opacity="1" fill-opacity="0" stroke="#ffffff" stroke-width="16" stroke-opacity="1"></use></g></g><g><use xlink:href="#c4Z3z8Lioa" opacity="1" fill="#000000" fill-opacity="0"></use><g><use xlink:href="#c4Z3z8Lioa" opacity="1" fill-opacity="0" stroke="#ffffff" stroke-width="16" stroke-opacity="1"></use></g></g><g><use xlink:href="#c2tJN5qLsa" opacity="1" fill="#000000" fill-opacity="0"></use><g><use xlink:href="#c2tJN5qLsa" opacity="1" fill-opacity="0" stroke="#ffffff" stroke-width="16" stroke-opacity="1"></use></g></g><g><use xlink:href="#d2metvk0r6" opacity="1" fill="#000000" fill-opacity="0"></use><g><use xlink:href="#d2metvk0r6" opacity="1" fill-opacity="0" stroke="#ffffff" stroke-width="16" stroke-opacity="1"></use></g></g><g><use xlink:href="#awfcqVbz6" opacity="1" fill="#000000" fill-opacity="0"></use><g><use xlink:href="#awfcqVbz6" opacity="1" fill-opacity="0" stroke="#ffffff" stroke-width="16" stroke-opacity="1"></use></g></g><g><use xlink:href="#a23Z8uBd" opacity="1" fill="#000000" fill-opacity="0"></use><g><use xlink:href="#a23Z8uBd" opacity="1" fill-opacity="0" stroke="#ffffff" stroke-width="16" stroke-opacity="1"></use></g></g><g><use xlink:href="#crLHvVcpL" opacity="1" fill="#000000" fill-opacity="0"></use><g><use xlink:href="#crLHvVcpL" opacity="1" fill-opacity="0" stroke="#ffffff" stroke-width="16" stroke-opacity="1"></use></g></g><g><use xlink:href="#g2htZukIjX" opacity="1" fill="#000000" fill-opacity="0"></use><g><use xlink:href="#g2htZukIjX" opacity="1" fill-opacity="0" stroke="#ffffff" stroke-width="16" stroke-opacity="1"></use></g></g><g><use xlink:href="#a70l505Kt" opacity="1" fill="#000000" fill-opacity="0"></use><g><use xlink:href="#a70l505Kt" opacity="1" fill-opacity="0" stroke="#ffffff" stroke-width="16" stroke-opacity="1"></use></g></g><g><use xlink:href="#e1heaGJwJy" opacity="1" fill="#000000" fill-opacity="0"></use><g><use xlink:href="#e1heaGJwJy" opacity="1" fill-opacity="0" stroke="#ffffff" stroke-width="16" stroke-opacity="1"></use></g></g><g><use xlink:href="#asO7D9hwJ" opacity="1" fill="#000000" fill-opacity="0"></use><g><use xlink:href="#asO7D9hwJ" opacity="1" fill-opacity="0" stroke="#ffffff" stroke-width="16" stroke-opacity="1"></use></g></g><g><use xlink:href="#d6F7YKJlC" opacity="1" fill="#000000" fill-opacity="0"></use><g><use xlink:href="#d6F7YKJlC" opacity="1" fill-opacity="0" stroke="#ffffff" stroke-width="16" stroke-opacity="1"></use></g></g><g><use xlink:href="#cUrZQNa62" opacity="1" fill="#000000" fill-opacity="0"></use><g><use xlink:href="#cUrZQNa62" opacity="1" fill-opacity="0" stroke="#ffffff" stroke-width="16" stroke-opacity="1"></use></g></g><g><use xlink:href="#bM28gyTy5" opacity="1" fill="#000000" fill-opacity="0"></use><g><use xlink:href="#bM28gyTy5" opacity="1" fill-opacity="0" stroke="#ffffff" stroke-width="16" stroke-opacity="1"></use></g></g><g><use xlink:href="#a7ZXM8kjs" opacity="1" fill="#000000" fill-opacity="0"></use><g><use xlink:href="#a7ZXM8kjs" opacity="1" fill-opacity="0" stroke="#ffffff" stroke-width="16" stroke-opacity="1"></use></g></g><g><use xlink:href="#bxi41Ukns" opacity="1" fill="#000000" fill-opacity="0"></use><g><use xlink:href="#bxi41Ukns" opacity="1" fill-opacity="0" stroke="#ffffff" stroke-width="16" stroke-opacity="1"></use></g></g><g><use xlink:href="#cbgeVQZA0" opacity="1" fill="#000000" fill-opacity="0"></use><g><use xlink:href="#cbgeVQZA0" opacity="1" fill-opacity="0" stroke="#ffffff" stroke-width="16" stroke-opacity="1"></use></g></g><g><use xlink:href="#c42p81sQ7x" opacity="1" fill="#000000" fill-opacity="0"></use><g><use xlink:href="#c42p81sQ7x" opacity="1" fill-opacity="0" stroke="#ffffff" stroke-width="16" stroke-opacity="1"></use></g></g><g><use xlink:href="#b1VCeoAnSX" opacity="1" fill="#000000" fill-opacity="0"></use><g><use xlink:href="#b1VCeoAnSX" opacity="1" fill-opacity="0" stroke="#ffffff" stroke-width="16" stroke-opacity="1"></use></g></g><g><use xlink:href="#brremuRiR" opacity="1" fill="#000000" fill-opacity="0"></use><g><use xlink:href="#brremuRiR" opacity="1" fill-opacity="0" stroke="#ffffff" stroke-width="16" stroke-opacity="1"></use></g></g><g><use xlink:href="#b3s1PXjSoh" opacity="1" fill="#000000" fill-opacity="0"></use><g><use xlink:href="#b3s1PXjSoh" opacity="1" fill-opacity="0" stroke="#ffffff" stroke-width="16" stroke-opacity="1"></use></g></g><g><use xlink:href="#cfU6fN2pu" opacity="1" fill="#000000" fill-opacity="0"></use><g><use xlink:href="#cfU6fN2pu" opacity="1" fill-opacity="0" stroke="#ffffff" stroke-width="16" stroke-opacity="1"></use></g></g><g><use xlink:href="#g1ZYDlvOXk" opacity="1" fill="#000000" fill-opacity="0"></use><g><use xlink:href="#g1ZYDlvOXk" opacity="1" fill-opacity="0" stroke="#ffffff" stroke-width="16" stroke-opacity="1"></use></g></g><g><use xlink:href="#b3gRnuYI4S" opacity="1" fill="#000000" fill-opacity="0"></use><g><use xlink:href="#b3gRnuYI4S" opacity="1" fill-opacity="0" stroke="#ffffff" stroke-width="16" stroke-opacity="1"></use></g></g><g><use xlink:href="#j2vLELD110" opacity="1" fill="#000000" fill-opacity="0"></use><g><use xlink:href="#j2vLELD110" opacity="1" fill-opacity="0" stroke="#ffffff" stroke-width="16" stroke-opacity="1"></use></g></g><g><use xlink:href="#bNYkU6lQK" opacity="1" fill="#000000" fill-opacity="0"></use><g><use xlink:href="#bNYkU6lQK" opacity="1" fill-opacity="0" stroke="#ffffff" stroke-width="16" stroke-opacity="1"></use></g></g><g><use xlink:href="#b1y4ESx7CP" opacity="1" fill="#000000" fill-opacity="0"></use><g><use xlink:href="#b1y4ESx7CP" opacity="1" fill-opacity="0" stroke="#ffffff" stroke-width="16" stroke-opacity="1"></use></g></g><g><use xlink:href="#d7ukIKqDs" opacity="1" fill="#000000" fill-opacity="0"></use><g><use xlink:href="#d7ukIKqDs" opacity="1" fill-opacity="0" stroke="#ffffff" stroke-width="16" stroke-opacity="1"></use></g></g><g><use xlink:href="#dD5gPHML" opacity="1" fill="#000000" fill-opacity="0"></use><g><use xlink:href="#dD5gPHML" opacity="1" fill-opacity="0" stroke="#ffffff" stroke-width="16" stroke-opacity="1"></use></g></g><g><use xlink:href="#f2HRvk2526" opacity="1" fill="#000000" fill-opacity="0"></use><g><use xlink:href="#f2HRvk2526" opacity="1" fill-opacity="0" stroke="#ffffff" stroke-width="16" stroke-opacity="1"></use></g></g><g><use xlink:href="#gA0ZM6821" opacity="1" fill="#000000" fill-opacity="0"></use><g><use xlink:href="#gA0ZM6821" opacity="1" fill-opacity="0" stroke="#ffffff" stroke-width="16" stroke-opacity="1"></use></g></g><g><use xlink:href="#a3JVmoQ2He" opacity="1" fill="#000000" fill-opacity="0"></use><g><use xlink:href="#a3JVmoQ2He" opacity="1" fill-opacity="0" stroke="#ffffff" stroke-width="16" stroke-opacity="1"></use></g></g><g><use xlink:href="#a1BBrYwcCI" opacity="1" fill="#000000" fill-opacity="0"></use><g><use xlink:href="#a1BBrYwcCI" opacity="1" fill-opacity="0" stroke="#ffffff" stroke-width="16" stroke-opacity="1"></use></g></g><g><use xlink:href="#b7LJRwEhJ" opacity="1" fill="#000000" fill-opacity="0"></use><g><use xlink:href="#b7LJRwEhJ" opacity="1" fill-opacity="0" stroke="#ffffff" stroke-width="16" stroke-opacity="1"></use></g></g><g><use xlink:href="#d2oBoKTVPU" opacity="1" fill="#000000" fill-opacity="0"></use><g><use xlink:href="#d2oBoKTVPU" opacity="1" fill-opacity="0" stroke="#ffffff" stroke-width="16" stroke-opacity="1"></use></g></g><g><use xlink:href="#a2jkBdzEpM" opacity="1" fill="#000000" fill-opacity="0"></use><g><use xlink:href="#a2jkBdzEpM" opacity="1" fill-opacity="0" stroke="#ffffff" stroke-width="16" stroke-opacity="1"></use></g></g><g><use xlink:href="#d1zStfXhMt" opacity="1" fill="#000000" fill-opacity="0"></use><g><use xlink:href="#d1zStfXhMt" opacity="1" fill-opacity="0" stroke="#ffffff" stroke-width="16" stroke-opacity="1"></use></g></g><g><use xlink:href="#apN5ORLMz" opacity="1" fill="#000000" fill-opacity="0"></use><g><use xlink:href="#apN5ORLMz" opacity="1" fill-opacity="0" stroke="#ffffff" stroke-width="16" stroke-opacity="1"></use></g></g><g><use xlink:href="#csuzcWsPU" opacity="1" fill="#000000" fill-opacity="0"></use><g><use xlink:href="#csuzcWsPU" opacity="1" fill-opacity="0" stroke="#ffffff" stroke-width="16" stroke-opacity="1"></use></g></g></g></g></svg>